<svg width="423" height="292" viewBox="0 0 423 292" fill="none" xmlns="http://www.w3.org/2000/svg">
<path d="M8.56 8.40399V7.40399H7.56V8.40399H8.56ZM76.36 8.40399H77.36V7.40399H76.36V8.40399ZM76.36 13.376L77.1282 14.0162L77.36 13.738V13.376H76.36ZM73.196 19.252L72.2345 18.9773L72.2157 19.0429L72.2061 19.1106L73.196 19.252ZM72.744 118.692H71.744V119.692H72.744V118.692ZM143.708 118.692V119.692H144.708V118.692H143.708ZM143.708 8.40399V7.40399H142.708V8.40399H143.708ZM211.508 8.40399H212.508V7.40399H211.508V8.40399ZM211.508 13.376L212.276 14.0162L212.508 13.738V13.376H211.508ZM208.344 19.252L207.382 18.9773L207.364 19.0429L207.354 19.1106L208.344 19.252ZM207.892 290V291H208.892V290H207.892ZM143.708 290H142.708V291H143.708V290ZM143.708 168.412H144.708V167.412H143.708V168.412ZM72.744 168.412V167.412H71.744V168.412H72.744ZM72.744 290V291H73.744V290H72.744ZM8.56 290H7.56V291H8.56V290ZM8.56 9.40399H72.292V7.40399H8.56V9.40399ZM72.292 9.40399H76.36V7.40399H72.292V9.40399ZM75.36 8.40399V13.376H77.36V8.40399H75.36ZM75.5918 12.7358C74.0025 14.6429 72.8782 16.7244 72.2345 18.9773L74.1575 19.5267C74.7192 17.5609 75.7042 15.7251 77.1282 14.0162L75.5918 12.7358ZM72.2061 19.1106C71.8936 21.2975 71.744 24.9772 71.744 30.1H73.744C73.744 24.9774 73.8957 21.4251 74.186 19.3934L72.2061 19.1106ZM71.744 30.1V118.692H73.744V30.1H71.744ZM72.744 119.692H143.708V117.692H72.744V119.692ZM144.708 118.692V8.40399H142.708V118.692H144.708ZM143.708 9.40399H207.44V7.40399H143.708V9.40399ZM207.44 9.40399H211.508V7.40399H207.44V9.40399ZM210.508 8.40399V13.376H212.508V8.40399H210.508ZM210.74 12.7358C209.151 14.6429 208.026 16.7244 207.382 18.9773L209.306 19.5267C209.867 17.5609 210.852 15.7251 212.276 14.0162L210.74 12.7358ZM207.354 19.1106C207.042 21.2975 206.892 24.9772 206.892 30.1H208.892C208.892 24.9774 209.044 21.4251 209.334 19.3934L207.354 19.1106ZM206.892 30.1V290H208.892V30.1H206.892ZM207.892 289H143.708V291H207.892V289ZM144.708 290V168.412H142.708V290H144.708ZM143.708 167.412H72.744V169.412H143.708V167.412ZM71.744 168.412V290H73.744V168.412H71.744ZM72.744 289H8.56V291H72.744V289ZM9.56 290V8.40399H7.56V290H9.56ZM249.476 290H248.476V291H249.476V290ZM249.476 238.924V237.924H248.476V238.924H249.476ZM304.168 238.924V239.924H305.168V238.924H304.168ZM304.168 59.48H305.168V58.48H304.168V59.48ZM252.188 59.48H251.188V60.48H252.188V59.48ZM252.188 8.40399V7.40399H251.188V8.40399H252.188ZM418.524 8.40399H419.524V7.40399H418.524V8.40399ZM418.524 59.48V60.48H419.524V59.48H418.524ZM363.832 59.48V58.48H362.832V59.48H363.832ZM363.832 238.924H362.832V239.924H363.832V238.924ZM420.784 238.924H421.784V237.924H420.784V238.924ZM420.784 290V291H421.784V290H420.784ZM250.476 290V238.924H248.476V290H250.476ZM249.476 239.924H304.168V237.924H249.476V239.924ZM305.168 238.924V59.48H303.168V238.924H305.168ZM304.168 58.48H252.188V60.48H304.168V58.48ZM253.188 59.48V8.40399H251.188V59.48H253.188ZM252.188 9.40399H418.524V7.40399H252.188V9.40399ZM417.524 8.40399V59.48H419.524V8.40399H417.524ZM418.524 58.48H363.832V60.48H418.524V58.48ZM362.832 59.48V238.924H364.832V59.48H362.832ZM363.832 239.924H420.784V237.924H363.832V239.924ZM419.784 238.924V290H421.784V238.924H419.784ZM420.784 289H249.476V291H420.784V289Z" fill="#22FF38"/>
<mask id="mask0_372_1121" style="mask-type:alpha" maskUnits="userSpaceOnUse" x="2" y="3" width="413" height="282">
<path d="M2.56 3.40399H66.292H70.36V8.37598C68.8533 10.184 67.7987 12.1427 67.196 14.252C66.8947 16.3613 66.744 19.9773 66.744 25.1V113.692H137.708V3.40399H201.44H205.508V8.37598C204.001 10.184 202.947 12.1427 202.344 14.252C202.043 16.3613 201.892 19.9773 201.892 25.1V285H137.708V163.412H66.744V285H2.56V3.40399ZM243.476 285V233.924H298.168V54.48H246.188V3.40399H412.524V54.48H357.832V233.924H414.784V285H243.476Z" fill="white"/>
<path d="M2.56 3.40399V2.40399H1.56V3.40399H2.56ZM70.36 3.40399H71.36V2.40399H70.36V3.40399ZM70.36 8.37598L71.1282 9.01616L71.36 8.73803V8.37598H70.36ZM67.196 14.252L66.2345 13.9773L66.2157 14.0429L66.2061 14.1106L67.196 14.252ZM66.744 113.692H65.744V114.692H66.744V113.692ZM137.708 113.692V114.692H138.708V113.692H137.708ZM137.708 3.40399V2.40399H136.708V3.40399H137.708ZM205.508 3.40399H206.508V2.40399H205.508V3.40399ZM205.508 8.37598L206.276 9.01616L206.508 8.73803V8.37598H205.508ZM202.344 14.252L201.382 13.9773L201.364 14.0429L201.354 14.1106L202.344 14.252ZM201.892 285V286H202.892V285H201.892ZM137.708 285H136.708V286H137.708V285ZM137.708 163.412H138.708V162.412H137.708V163.412ZM66.744 163.412V162.412H65.744V163.412H66.744ZM66.744 285V286H67.744V285H66.744ZM2.56 285H1.56V286H2.56V285ZM2.56 4.40399H66.292V2.40399H2.56V4.40399ZM66.292 4.40399H70.36V2.40399H66.292V4.40399ZM69.36 3.40399V8.37598H71.36V3.40399H69.36ZM69.5918 7.7358C68.0025 9.64293 66.8782 11.7244 66.2345 13.9773L68.1575 14.5267C68.7192 12.5609 69.7042 10.7251 71.1282 9.01616L69.5918 7.7358ZM66.2061 14.1106C65.8936 16.2975 65.744 19.9772 65.744 25.1H67.744C67.744 19.9774 67.8957 16.4251 68.186 14.3934L66.2061 14.1106ZM65.744 25.1V113.692H67.744V25.1H65.744ZM66.744 114.692H137.708V112.692H66.744V114.692ZM138.708 113.692V3.40399H136.708V113.692H138.708ZM137.708 4.40399H201.44V2.40399H137.708V4.40399ZM201.44 4.40399H205.508V2.40399H201.44V4.40399ZM204.508 3.40399V8.37598H206.508V3.40399H204.508ZM204.74 7.7358C203.151 9.64293 202.026 11.7244 201.382 13.9773L203.306 14.5267C203.867 12.5609 204.852 10.7251 206.276 9.01616L204.74 7.7358ZM201.354 14.1106C201.042 16.2975 200.892 19.9772 200.892 25.1H202.892C202.892 19.9774 203.044 16.4251 203.334 14.3934L201.354 14.1106ZM200.892 25.1V285H202.892V25.1H200.892ZM201.892 284H137.708V286H201.892V284ZM138.708 285V163.412H136.708V285H138.708ZM137.708 162.412H66.744V164.412H137.708V162.412ZM65.744 163.412V285H67.744V163.412H65.744ZM66.744 284H2.56V286H66.744V284ZM3.56 285V3.40399H1.56V285H3.56ZM243.476 285H242.476V286H243.476V285ZM243.476 233.924V232.924H242.476V233.924H243.476ZM298.168 233.924V234.924H299.168V233.924H298.168ZM298.168 54.48H299.168V53.48H298.168V54.48ZM246.188 54.48H245.188V55.48H246.188V54.48ZM246.188 3.40399V2.40399H245.188V3.40399H246.188ZM412.524 3.40399H413.524V2.40399H412.524V3.40399ZM412.524 54.48V55.48H413.524V54.48H412.524ZM357.832 54.48V53.48H356.832V54.48H357.832ZM357.832 233.924H356.832V234.924H357.832V233.924ZM414.784 233.924H415.784V232.924H414.784V233.924ZM414.784 285V286H415.784V285H414.784ZM244.476 285V233.924H242.476V285H244.476ZM243.476 234.924H298.168V232.924H243.476V234.924ZM299.168 233.924V54.48H297.168V233.924H299.168ZM298.168 53.48H246.188V55.48H298.168V53.48ZM247.188 54.48V3.40399H245.188V54.48H247.188ZM246.188 4.40399H412.524V2.40399H246.188V4.40399ZM411.524 3.40399V54.48H413.524V3.40399H411.524ZM412.524 53.48H357.832V55.48H412.524V53.48ZM356.832 54.48V233.924H358.832V54.48H356.832ZM357.832 234.924H414.784V232.924H357.832V234.924ZM413.784 233.924V285H415.784V233.924H413.784ZM414.784 284H243.476V286H414.784V284Z" fill="black"/>
</mask>
<g mask="url(#mask0_372_1121)">
<path d="M2.56 3.40399H66.292H70.36V8.37598C68.8533 10.184 67.7987 12.1427 67.196 14.252C66.8947 16.3613 66.744 19.9773 66.744 25.1V113.692H137.708V3.40399H201.44H205.508V8.37598C204.001 10.184 202.947 12.1427 202.344 14.252C202.043 16.3613 201.892 19.9773 201.892 25.1V285H137.708V163.412H66.744V285H2.56V3.40399ZM243.476 285V233.924H298.168V54.48H246.188V3.40399H412.524V54.48H357.832V233.924H414.784V285H243.476Z" fill="white"/>
<path d="M2.56 3.40399V2.40399H1.56V3.40399H2.56ZM70.36 3.40399H71.36V2.40399H70.36V3.40399ZM70.36 8.37598L71.1282 9.01616L71.36 8.73803V8.37598H70.36ZM67.196 14.252L66.2345 13.9773L66.2157 14.0429L66.2061 14.1106L67.196 14.252ZM66.744 113.692H65.744V114.692H66.744V113.692ZM137.708 113.692V114.692H138.708V113.692H137.708ZM137.708 3.40399V2.40399H136.708V3.40399H137.708ZM205.508 3.40399H206.508V2.40399H205.508V3.40399ZM205.508 8.37598L206.276 9.01616L206.508 8.73803V8.37598H205.508ZM202.344 14.252L201.382 13.9773L201.364 14.0429L201.354 14.1106L202.344 14.252ZM201.892 285V286H202.892V285H201.892ZM137.708 285H136.708V286H137.708V285ZM137.708 163.412H138.708V162.412H137.708V163.412ZM66.744 163.412V162.412H65.744V163.412H66.744ZM66.744 285V286H67.744V285H66.744ZM2.56 285H1.56V286H2.56V285ZM2.56 4.40399H66.292V2.40399H2.56V4.40399ZM66.292 4.40399H70.36V2.40399H66.292V4.40399ZM69.36 3.40399V8.37598H71.36V3.40399H69.36ZM69.5918 7.7358C68.0025 9.64293 66.8782 11.7244 66.2345 13.9773L68.1575 14.5267C68.7192 12.5609 69.7042 10.7251 71.1282 9.01616L69.5918 7.7358ZM66.2061 14.1106C65.8936 16.2975 65.744 19.9772 65.744 25.1H67.744C67.744 19.9774 67.8957 16.4251 68.186 14.3934L66.2061 14.1106ZM65.744 25.1V113.692H67.744V25.1H65.744ZM66.744 114.692H137.708V112.692H66.744V114.692ZM138.708 113.692V3.40399H136.708V113.692H138.708ZM137.708 4.40399H201.44V2.40399H137.708V4.40399ZM201.44 4.40399H205.508V2.40399H201.44V4.40399ZM204.508 3.40399V8.37598H206.508V3.40399H204.508ZM204.74 7.7358C203.151 9.64293 202.026 11.7244 201.382 13.9773L203.306 14.5267C203.867 12.5609 204.852 10.7251 206.276 9.01616L204.74 7.7358ZM201.354 14.1106C201.042 16.2975 200.892 19.9772 200.892 25.1H202.892C202.892 19.9774 203.044 16.4251 203.334 14.3934L201.354 14.1106ZM200.892 25.1V285H202.892V25.1H200.892ZM201.892 284H137.708V286H201.892V284ZM138.708 285V163.412H136.708V285H138.708ZM137.708 162.412H66.744V164.412H137.708V162.412ZM65.744 163.412V285H67.744V163.412H65.744ZM66.744 284H2.56V286H66.744V284ZM3.56 285V3.40399H1.56V285H3.56ZM243.476 285H242.476V286H243.476V285ZM243.476 233.924V232.924H242.476V233.924H243.476ZM298.168 233.924V234.924H299.168V233.924H298.168ZM298.168 54.48H299.168V53.48H298.168V54.48ZM246.188 54.48H245.188V55.48H246.188V54.48ZM246.188 3.40399V2.40399H245.188V3.40399H246.188ZM412.524 3.40399H413.524V2.40399H412.524V3.40399ZM412.524 54.48V55.48H413.524V54.48H412.524ZM357.832 54.48V53.48H356.832V54.48H357.832ZM357.832 233.924H356.832V234.924H357.832V233.924ZM414.784 233.924H415.784V232.924H414.784V233.924ZM414.784 285V286H415.784V285H414.784ZM244.476 285V233.924H242.476V285H244.476ZM243.476 234.924H298.168V232.924H243.476V234.924ZM299.168 233.924V54.48H297.168V233.924H299.168ZM298.168 53.48H246.188V55.48H298.168V53.48ZM247.188 54.48V3.40399H245.188V54.48H247.188ZM246.188 4.40399H412.524V2.40399H246.188V4.40399ZM411.524 3.40399V54.48H413.524V3.40399H411.524ZM412.524 53.48H357.832V55.48H412.524V53.48ZM356.832 54.48V233.924H358.832V54.48H356.832ZM357.832 234.924H414.784V232.924H357.832V234.924ZM413.784 233.924V285H415.784V233.924H413.784ZM414.784 284H243.476V286H414.784V284Z" fill="black"/>
<path d="M-7.5439 128.75C-7.5439 128.75 122.265 6.81285 170.194 63.1732C218.528 120.01 28.4738 166.715 72.1932 227.173C117.942 290.438 189.118 126.866 260.193 159.173C348.708 199.408 219.71 332.677 282.193 407.173C347.057 484.508 533.456 467.75 533.456 467.75" stroke="#0C0D0D"/>
</g>
</svg>
