<svg width="294" height="294" viewBox="0 0 294 294" fill="none" xmlns="http://www.w3.org/2000/svg">
<path d="M9.50781 8.79932L5.19397 5.90069" stroke="#143C18" stroke-linecap="round"/>
<path d="M9.2207 23.8542L5.48027 20.2459" stroke="#143C18" stroke-linecap="round"/>
<path d="M9.14258 38.6313L5.55763 34.8684" stroke="#143C18" stroke-linecap="round"/>
<path d="M9.26172 53.2104L5.43889 49.6895" stroke="#143C18" stroke-linecap="round"/>
<path d="M9.47852 67.6406L5.22145 64.6592" stroke="#143C18" stroke-linecap="round"/>
<path d="M9.68359 81.9932L5.01635 79.7067" stroke="#143C18" stroke-linecap="round"/>
<path d="M9.81641 96.3674L4.88302 94.7325" stroke="#143C18" stroke-linecap="round"/>
<path d="M9.87891 110.845L4.81961 109.655" stroke="#143C18" stroke-linecap="round"/>
<path d="M9.90039 125.445L4.7983 124.455" stroke="#143C18" stroke-linecap="round"/>
<path d="M9.9043 140.123L4.79382 139.177" stroke="#143C18" stroke-linecap="round"/>
<path d="M9.9082 154.809L4.79271 153.891" stroke="#143C18" stroke-linecap="round"/>
<path d="M9.91602 169.455L4.78229 168.645" stroke="#143C18" stroke-linecap="round"/>
<path d="M9.93945 183.978L4.7623 183.522" stroke="#143C18" stroke-linecap="round"/>
<path d="M9.94531 198.307L4.75596 198.593" stroke="#143C18" stroke-linecap="round"/>
<path d="M9.85352 212.454L4.84603 213.846" stroke="#143C18" stroke-linecap="round"/>
<path d="M9.5957 226.542L5.10417 229.157" stroke="#143C18" stroke-linecap="round"/>
<path d="M9.21484 240.74L5.48464 244.359" stroke="#143C18" stroke-linecap="round"/>
<path d="M8.875 255.146L5.82431 259.354" stroke="#143C18" stroke-linecap="round"/>
<path d="M8.74609 269.759L5.95252 274.141" stroke="#143C18" stroke-linecap="round"/>
<path d="M8.9043 284.568L5.79476 288.732" stroke="#143C18" stroke-linecap="round"/>
<path d="M24.6094 7.79712L19.4897 6.90285" stroke="#143C18" stroke-linecap="round"/>
<path d="M24.5332 22.8149L19.5663 21.2848" stroke="#143C18" stroke-linecap="round"/>
<path d="M24.5059 37.6021L19.5959 35.8982" stroke="#143C18" stroke-linecap="round"/>
<path d="M24.5215 52.2546L19.5797 50.6453" stroke="#143C18" stroke-linecap="round"/>
<path d="M24.5469 66.8677L19.5517 65.4324" stroke="#143C18" stroke-linecap="round"/>
<path d="M24.5586 81.5291L19.542 80.1707" stroke="#143C18" stroke-linecap="round"/>
<path d="M24.5371 96.3032L19.5629 94.797" stroke="#143C18" stroke-linecap="round"/>
<path d="M24.4668 111.204L19.6326 109.296" stroke="#143C18" stroke-linecap="round"/>
<path d="M24.3359 126.186L19.7643 123.714" stroke="#143C18" stroke-linecap="round"/>
<path d="M24.1641 141.161L19.936 138.139" stroke="#143C18" stroke-linecap="round"/>
<path d="M24.0078 156.059L20.0918 152.642" stroke="#143C18" stroke-linecap="round"/>
<path d="M23.9395 170.833L20.1594 167.267" stroke="#143C18" stroke-linecap="round"/>
<path d="M24.0488 185.41L20.0497 182.09" stroke="#143C18" stroke-linecap="round"/>
<path d="M24.332 199.692L19.7664 197.208" stroke="#143C18" stroke-linecap="round"/>
<path d="M24.6055 213.621L19.4943 212.679" stroke="#143C18" stroke-linecap="round"/>
<path d="M24.5938 227.317L19.5068 228.383" stroke="#143C18" stroke-linecap="round"/>
<path d="M24.2031 241.095L19.8972 244.005" stroke="#143C18" stroke-linecap="round"/>
<path d="M23.6602 255.21L20.4416 259.29" stroke="#143C18" stroke-linecap="round"/>
<path d="M23.3008 269.672L20.7999 274.228" stroke="#143C18" stroke-linecap="round"/>
<path d="M23.3242 284.385L20.7748 288.914" stroke="#143C18" stroke-linecap="round"/>
<path d="M39.3223 6.98438L34.1767 7.71567" stroke="#143C18" stroke-linecap="round"/>
<path d="M39.3359 21.8032L34.1622 22.2968" stroke="#143C18" stroke-linecap="round"/>
<path d="M39.3379 36.5085L34.1631 36.9915" stroke="#143C18" stroke-linecap="round"/>
<path d="M39.3379 51.2039L34.164 51.696" stroke="#143C18" stroke-linecap="round"/>
<path d="M39.3438 65.9978L34.1554 66.3023" stroke="#143C18" stroke-linecap="round"/>
<path d="M39.3457 80.9641L34.1535 80.7361" stroke="#143C18" stroke-linecap="round"/>
<path d="M39.2852 96.124L34.2164 94.9757" stroke="#143C18" stroke-linecap="round"/>
<path d="M39.0703 111.419L34.4284 109.081" stroke="#143C18" stroke-linecap="round"/>
<path d="M38.666 126.706L34.8348 123.194" stroke="#143C18" stroke-linecap="round"/>
<path d="M38.1465 141.841L35.3518 137.459" stroke="#143C18" stroke-linecap="round"/>
<path d="M37.6699 156.781L35.8306 151.92" stroke="#143C18" stroke-linecap="round"/>
<path d="M37.4043 171.565L36.0958 166.535" stroke="#143C18" stroke-linecap="round"/>
<path d="M37.5234 186.231L35.978 181.269" stroke="#143C18" stroke-linecap="round"/>
<path d="M38.0723 200.687L35.4266 196.213" stroke="#143C18" stroke-linecap="round"/>
<path d="M38.8398 214.694L34.6594 211.606" stroke="#143C18" stroke-linecap="round"/>
<path d="M39.3262 228.185L34.1722 227.516" stroke="#143C18" stroke-linecap="round"/>
<path d="M39.1504 241.555L34.3492 243.545" stroke="#143C18" stroke-linecap="round"/>
<path d="M38.502 255.332L34.9961 259.168" stroke="#143C18" stroke-linecap="round"/>
<path d="M37.9277 269.634L35.5717 274.266" stroke="#143C18" stroke-linecap="round"/>
<path d="M37.8027 284.274L35.6976 289.026" stroke="#143C18" stroke-linecap="round"/>
<path d="M53.9043 6.49658L48.9954 8.20363" stroke="#143C18" stroke-linecap="round"/>
<path d="M53.8457 21.0454L49.0525 23.0546" stroke="#143C18" stroke-linecap="round"/>
<path d="M53.7891 35.6187L49.1101 37.8811" stroke="#143C18" stroke-linecap="round"/>
<path d="M53.7832 50.3054L49.1172 52.5945" stroke="#143C18" stroke-linecap="round"/>
<path d="M53.8672 65.1936L49.0347 67.1062" stroke="#143C18" stroke-linecap="round"/>
<path d="M54.0039 80.3662L48.8976 81.3339" stroke="#143C18" stroke-linecap="round"/>
<path d="M54.0332 95.8396L48.8683 95.2604" stroke="#143C18" stroke-linecap="round"/>
<path d="M53.7402 111.478L49.1602 109.022" stroke="#143C18" stroke-linecap="round"/>
<path d="M53.0547 126.994L49.8451 122.906" stroke="#143C18" stroke-linecap="round"/>
<path d="M52.1641 142.148L50.7353 137.151" stroke="#143C18" stroke-linecap="round"/>
<path d="M51.3652 156.947L51.5345 151.753" stroke="#143C18" stroke-linecap="round"/>
<path d="M50.9082 171.591L51.9937 166.509" stroke="#143C18" stroke-linecap="round"/>
<path d="M50.959 186.302L51.9404 181.198" stroke="#143C18" stroke-linecap="round"/>
<path d="M51.6094 201.044L51.2923 195.856" stroke="#143C18" stroke-linecap="round"/>
<path d="M52.7461 215.403L50.1549 210.897" stroke="#143C18" stroke-linecap="round"/>
<path d="M53.7891 228.98L49.1093 226.72" stroke="#143C18" stroke-linecap="round"/>
<path d="M54.0059 242.085L48.8926 243.015" stroke="#143C18" stroke-linecap="round"/>
<path d="M53.3965 255.528L49.505 258.973" stroke="#143C18" stroke-linecap="round"/>
<path d="M52.668 269.655L50.232 274.246" stroke="#143C18" stroke-linecap="round"/>
<path d="M52.4102 284.235L50.4911 289.065" stroke="#143C18" stroke-linecap="round"/>
<path d="M68.5371 6.32446L63.7617 8.37543" stroke="#143C18" stroke-linecap="round"/>
<path d="M68.3008 20.5908L64.0003 23.5092" stroke="#143C18" stroke-linecap="round"/>
<path d="M68.0918 35.0239L64.2066 38.476" stroke="#143C18" stroke-linecap="round"/>
<path d="M68.0469 49.6733L64.2539 53.2265" stroke="#143C18" stroke-linecap="round"/>
<path d="M68.2207 64.5796L64.0798 67.7203" stroke="#143C18" stroke-linecap="round"/>
<path d="M68.543 79.8367L63.7571 81.8632" stroke="#143C18" stroke-linecap="round"/>
<path d="M68.748 95.5103L63.5514 95.5898" stroke="#143C18" stroke-linecap="round"/>
<path d="M68.4688 111.424L63.8319 109.076" stroke="#143C18" stroke-linecap="round"/>
<path d="M67.5762 127.123L64.7258 122.777" stroke="#143C18" stroke-linecap="round"/>
<path d="M66.3789 142.239L65.9203 137.062" stroke="#143C18" stroke-linecap="round"/>
<path d="M65.3496 156.822L66.9506 151.878" stroke="#143C18" stroke-linecap="round"/>
<path d="M64.7754 171.256L67.5231 166.844" stroke="#143C18" stroke-linecap="round"/>
<path d="M64.7441 185.935L67.5562 181.565" stroke="#143C18" stroke-linecap="round"/>
<path d="M65.3281 200.915L66.9729 195.985" stroke="#143C18" stroke-linecap="round"/>
<path d="M66.5879 215.711L65.7112 210.589" stroke="#143C18" stroke-linecap="round"/>
<path d="M68.0586 229.614L64.2428 226.086" stroke="#143C18" stroke-linecap="round"/>
<path d="M68.7461 242.666L63.5541 242.434" stroke="#143C18" stroke-linecap="round"/>
<path d="M68.332 255.839L63.9678 258.661" stroke="#143C18" stroke-linecap="round"/>
<path d="M67.5625 269.768L64.739 274.132" stroke="#143C18" stroke-linecap="round"/>
<path d="M67.2109 284.277L65.0908 289.022" stroke="#143C18" stroke-linecap="round"/>
<path d="M83.2754 6.41479L78.4263 8.28508" stroke="#143C18" stroke-linecap="round"/>
<path d="M82.8477 20.3879L78.8523 23.7118" stroke="#143C18" stroke-linecap="round"/>
<path d="M82.4355 34.6909L79.2648 38.8089" stroke="#143C18" stroke-linecap="round"/>
<path d="M82.3027 49.2947L79.3991 53.6052" stroke="#143C18" stroke-linecap="round"/>
<path d="M82.5391 64.1758L79.1597 68.1244" stroke="#143C18" stroke-linecap="round"/>
<path d="M83.0332 79.4414L78.6656 82.2584" stroke="#143C18" stroke-linecap="round"/>
<path d="M83.4277 95.2205L78.2724 95.8794" stroke="#143C18" stroke-linecap="round"/>
<path d="M83.2129 111.33L78.4857 109.17" stroke="#143C18" stroke-linecap="round"/>
<path d="M82.1934 127.175L79.5082 122.725" stroke="#143C18" stroke-linecap="round"/>
<path d="M80.7812 142.248L80.9182 137.052" stroke="#143C18" stroke-linecap="round"/>
<path d="M79.6133 156.635L82.0879 152.065" stroke="#143C18" stroke-linecap="round"/>
<path d="M78.9941 170.869L82.7057 167.231" stroke="#143C18" stroke-linecap="round"/>
<path d="M78.9004 185.467L82.8013 182.033" stroke="#143C18" stroke-linecap="round"/>
<path d="M79.3418 200.566L82.3576 196.334" stroke="#143C18" stroke-linecap="round"/>
<path d="M80.5195 215.728L81.1802 210.572" stroke="#143C18" stroke-linecap="round"/>
<path d="M82.1992 230.071L79.5022 225.629" stroke="#143C18" stroke-linecap="round"/>
<path d="M83.3379 243.298L78.3607 241.802" stroke="#143C18" stroke-linecap="round"/>
<path d="M83.2773 256.321L78.424 258.18" stroke="#143C18" stroke-linecap="round"/>
<path d="M82.6055 270.034L79.0944 273.866" stroke="#143C18" stroke-linecap="round"/>
<path d="M82.207 284.434L79.4937 288.866" stroke="#143C18" stroke-linecap="round"/>
<path d="M98.0703 6.71558L93.0304 7.98463" stroke="#143C18" stroke-linecap="round"/>
<path d="M97.5371 20.3757L93.5625 23.7244" stroke="#143C18" stroke-linecap="round"/>
<path d="M96.9238 34.5439L94.1771 38.956" stroke="#143C18" stroke-linecap="round"/>
<path d="M96.6699 49.105L94.4302 53.7949" stroke="#143C18" stroke-linecap="round"/>
<path d="M96.9258 63.9451L94.1754 68.3549" stroke="#143C18" stroke-linecap="round"/>
<path d="M97.5449 79.1851L93.5545 82.5149" stroke="#143C18" stroke-linecap="round"/>
<path d="M98.0938 95.0142L93.0082 96.0857" stroke="#143C18" stroke-linecap="round"/>
<path d="M97.9453 111.256L93.1532 109.244" stroke="#143C18" stroke-linecap="round"/>
<path d="M96.8457 127.203L94.2553 122.697" stroke="#143C18" stroke-linecap="round"/>
<path d="M95.2949 142.236L95.8045 137.064" stroke="#143C18" stroke-linecap="round"/>
<path d="M94.0547 156.475L97.0452 152.225" stroke="#143C18" stroke-linecap="round"/>
<path d="M93.4316 170.556L97.6676 167.544" stroke="#143C18" stroke-linecap="round"/>
<path d="M93.3027 185.056L97.7958 182.444" stroke="#143C18" stroke-linecap="round"/>
<path d="M93.6016 200.17L97.497 196.73" stroke="#143C18" stroke-linecap="round"/>
<path d="M94.584 215.562L96.516 210.738" stroke="#143C18" stroke-linecap="round"/>
<path d="M96.2637 230.349L94.8379 225.351" stroke="#143C18" stroke-linecap="round"/>
<path d="M97.75 243.933L93.3503 241.167" stroke="#143C18" stroke-linecap="round"/>
<path d="M98.1328 256.969L92.9659 257.53" stroke="#143C18" stroke-linecap="round"/>
<path d="M97.7012 270.493L93.3973 273.407" stroke="#143C18" stroke-linecap="round"/>
<path d="M97.3223 284.75L93.7776 288.55" stroke="#143C18" stroke-linecap="round"/>
<path d="M112.842 7.17432L107.656 7.52545" stroke="#143C18" stroke-linecap="round"/>
<path d="M112.354 20.5232L108.148 23.5767" stroke="#143C18" stroke-linecap="round"/>
<path d="M111.598 34.5278L108.904 38.9724" stroke="#143C18" stroke-linecap="round"/>
<path d="M111.221 49.0396L109.279 53.8606" stroke="#143C18" stroke-linecap="round"/>
<path d="M111.449 63.845L109.049 68.4549" stroke="#143C18" stroke-linecap="round"/>
<path d="M112.133 79.0581L108.369 82.6418" stroke="#143C18" stroke-linecap="round"/>
<path d="M112.768 94.9055L107.733 96.1947" stroke="#143C18" stroke-linecap="round"/>
<path d="M112.662 111.216L107.837 109.284" stroke="#143C18" stroke-linecap="round"/>
<path d="M111.52 127.217L108.98 122.683" stroke="#143C18" stroke-linecap="round"/>
<path d="M109.896 142.225L110.603 137.076" stroke="#143C18" stroke-linecap="round"/>
<path d="M108.627 156.379L111.874 152.321" stroke="#143C18" stroke-linecap="round"/>
<path d="M108.01 170.368L112.489 167.733" stroke="#143C18" stroke-linecap="round"/>
<path d="M107.865 184.782L112.635 182.717" stroke="#143C18" stroke-linecap="round"/>
<path d="M108.057 199.845L112.442 197.055" stroke="#143C18" stroke-linecap="round"/>
<path d="M108.826 215.323L111.675 210.977" stroke="#143C18" stroke-linecap="round"/>
<path d="M110.352 230.447L110.147 225.253" stroke="#143C18" stroke-linecap="round"/>
<path d="M112.006 244.466L108.495 240.634" stroke="#143C18" stroke-linecap="round"/>
<path d="M112.811 257.697L107.691 256.803" stroke="#143C18" stroke-linecap="round"/>
<path d="M112.717 271.133L107.783 272.767" stroke="#143C18" stroke-linecap="round"/>
<path d="M112.439 285.249L108.062 288.051" stroke="#143C18" stroke-linecap="round"/>
<path d="M127.52 7.73804L122.381 6.96192" stroke="#143C18" stroke-linecap="round"/>
<path d="M127.246 20.833L122.654 23.2668" stroke="#143C18" stroke-linecap="round"/>
<path d="M126.459 34.6343L123.441 38.8656" stroke="#143C18" stroke-linecap="round"/>
<path d="M125.988 49.0676L123.913 53.8326" stroke="#143C18" stroke-linecap="round"/>
<path d="M126.158 63.8494L123.742 68.4506" stroke="#143C18" stroke-linecap="round"/>
<path d="M126.828 79.0537L123.073 82.6464" stroke="#143C18" stroke-linecap="round"/>
<path d="M127.467 94.9014L122.434 96.1988" stroke="#143C18" stroke-linecap="round"/>
<path d="M127.363 111.214L122.537 109.286" stroke="#143C18" stroke-linecap="round"/>
<path d="M126.219 127.218L123.681 122.682" stroke="#143C18" stroke-linecap="round"/>
<path d="M124.594 142.224L125.308 137.076" stroke="#143C18" stroke-linecap="round"/>
<path d="M123.322 156.375L126.579 152.325" stroke="#143C18" stroke-linecap="round"/>
<path d="M122.699 170.351L127.199 167.75" stroke="#143C18" stroke-linecap="round"/>
<path d="M122.535 184.712L127.363 182.788" stroke="#143C18" stroke-linecap="round"/>
<path d="M122.662 199.683L127.237 197.217" stroke="#143C18" stroke-linecap="round"/>
<path d="M123.256 215.12L126.646 211.18" stroke="#143C18" stroke-linecap="round"/>
<path d="M124.553 230.418L125.348 225.282" stroke="#143C18" stroke-linecap="round"/>
<path d="M126.184 244.837L123.716 240.263" stroke="#143C18" stroke-linecap="round"/>
<path d="M127.283 258.393L122.615 256.107" stroke="#143C18" stroke-linecap="round"/>
<path d="M127.547 271.879L122.352 272.021" stroke="#143C18" stroke-linecap="round"/>
<path d="M127.438 285.897L122.463 287.403" stroke="#143C18" stroke-linecap="round"/>
<path d="M142.047 8.35449L137.254 6.34565" stroke="#143C18" stroke-linecap="round"/>
<path d="M142.145 21.322L137.155 22.7782" stroke="#143C18" stroke-linecap="round"/>
<path d="M141.475 34.8997L137.826 38.6005" stroke="#143C18" stroke-linecap="round"/>
<path d="M140.961 49.2068L138.338 53.6934" stroke="#143C18" stroke-linecap="round"/>
<path d="M141.051 63.9612L138.25 68.3389" stroke="#143C18" stroke-linecap="round"/>
<path d="M141.635 79.1721L137.666 82.5279" stroke="#143C18" stroke-linecap="round"/>
<path d="M142.189 95.002L137.109 96.0978" stroke="#143C18" stroke-linecap="round"/>
<path d="M142.049 111.251L137.253 109.249" stroke="#143C18" stroke-linecap="round"/>
<path d="M140.941 127.204L138.357 122.695" stroke="#143C18" stroke-linecap="round"/>
<path d="M139.385 142.235L139.916 137.065" stroke="#143C18" stroke-linecap="round"/>
<path d="M138.139 156.464L141.16 152.236" stroke="#143C18" stroke-linecap="round"/>
<path d="M137.494 170.501L141.806 167.599" stroke="#143C18" stroke-linecap="round"/>
<path d="M137.291 184.839L142.01 182.661" stroke="#143C18" stroke-linecap="round"/>
<path d="M137.371 199.697L141.931 197.203" stroke="#143C18" stroke-linecap="round"/>
<path d="M137.832 215.007L141.468 211.293" stroke="#143C18" stroke-linecap="round"/>
<path d="M138.889 230.335L140.41 225.365" stroke="#143C18" stroke-linecap="round"/>
<path d="M140.365 245.048L138.933 240.052" stroke="#143C18" stroke-linecap="round"/>
<path d="M141.6 258.968L137.7 255.532" stroke="#143C18" stroke-linecap="round"/>
<path d="M142.16 272.62L137.139 271.28" stroke="#143C18" stroke-linecap="round"/>
<path d="M142.248 286.6L137.052 286.7" stroke="#143C18" stroke-linecap="round"/>
<path d="M156.395 8.95312L152.304 5.7468" stroke="#143C18" stroke-linecap="round"/>
<path d="M156.947 21.9692L151.753 22.1307" stroke="#143C18" stroke-linecap="round"/>
<path d="M156.543 35.3572L152.155 38.1429" stroke="#143C18" stroke-linecap="round"/>
<path d="M156.068 49.5005L152.632 53.3995" stroke="#143C18" stroke-linecap="round"/>
<path d="M156.074 64.2063L152.625 68.0938" stroke="#143C18" stroke-linecap="round"/>
<path d="M156.52 79.4187L152.182 82.2815" stroke="#143C18" stroke-linecap="round"/>
<path d="M156.926 95.2002L151.776 95.8996" stroke="#143C18" stroke-linecap="round"/>
<path d="M156.717 111.323L151.983 109.177" stroke="#143C18" stroke-linecap="round"/>
<path d="M155.688 127.178L153.011 122.722" stroke="#143C18" stroke-linecap="round"/>
<path d="M154.262 142.247L154.437 137.053" stroke="#143C18" stroke-linecap="round"/>
<path d="M153.072 156.613L155.628 152.087" stroke="#143C18" stroke-linecap="round"/>
<path d="M152.389 170.755L156.311 167.345" stroke="#143C18" stroke-linecap="round"/>
<path d="M152.125 185.093L156.575 182.408" stroke="#143C18" stroke-linecap="round"/>
<path d="M152.152 199.837L156.547 197.063" stroke="#143C18" stroke-linecap="round"/>
<path d="M152.51 214.984L156.192 211.316" stroke="#143C18" stroke-linecap="round"/>
<path d="M153.346 230.247L155.352 225.453" stroke="#143C18" stroke-linecap="round"/>
<path d="M154.605 245.136L154.093 239.964" stroke="#143C18" stroke-linecap="round"/>
<path d="M155.836 259.381L152.863 255.119" stroke="#143C18" stroke-linecap="round"/>
<path d="M156.598 273.255L152.104 270.645" stroke="#143C18" stroke-linecap="round"/>
<path d="M156.879 287.25L151.822 286.049" stroke="#143C18" stroke-linecap="round"/>
<path d="M170.633 9.41089L167.467 5.28922" stroke="#143C18" stroke-linecap="round"/>
<path d="M171.584 22.624L166.515 21.476" stroke="#143C18" stroke-linecap="round"/>
<path d="M171.514 35.9258L166.585 37.5743" stroke="#143C18" stroke-linecap="round"/>
<path d="M171.152 49.9231L166.947 52.977" stroke="#143C18" stroke-linecap="round"/>
<path d="M171.107 64.5625L166.993 67.7374" stroke="#143C18" stroke-linecap="round"/>
<path d="M171.404 79.7512L166.694 81.9486" stroke="#143C18" stroke-linecap="round"/>
<path d="M171.646 95.4504L166.453 95.6495" stroke="#143C18" stroke-linecap="round"/>
<path d="M171.377 111.408L166.724 109.092" stroke="#143C18" stroke-linecap="round"/>
<path d="M170.455 127.136L167.645 122.764" stroke="#143C18" stroke-linecap="round"/>
<path d="M169.203 142.244L168.898 137.056" stroke="#143C18" stroke-linecap="round"/>
<path d="M168.086 156.763L170.014 151.937" stroke="#143C18" stroke-linecap="round"/>
<path d="M167.361 171.025L170.739 167.075" stroke="#143C18" stroke-linecap="round"/>
<path d="M167.025 185.378L171.076 182.122" stroke="#143C18" stroke-linecap="round"/>
<path d="M166.984 200.028L171.114 196.872" stroke="#143C18" stroke-linecap="round"/>
<path d="M167.242 215.016L170.859 211.284" stroke="#143C18" stroke-linecap="round"/>
<path d="M167.887 230.174L170.212 225.526" stroke="#143C18" stroke-linecap="round"/>
<path d="M168.922 245.146L169.177 239.955" stroke="#143C18" stroke-linecap="round"/>
<path d="M170.066 259.641L168.032 254.859" stroke="#143C18" stroke-linecap="round"/>
<path d="M170.938 273.736L167.162 270.164" stroke="#143C18" stroke-linecap="round"/>
<path d="M171.393 287.775L166.708 285.525" stroke="#143C18" stroke-linecap="round"/>
<path d="M185 9.62866L182.502 5.07137" stroke="#143C18" stroke-linecap="round"/>
<path d="M186.152 23.0425L181.349 21.0574" stroke="#143C18" stroke-linecap="round"/>
<path d="M186.32 36.3687L181.179 37.1314" stroke="#143C18" stroke-linecap="round"/>
<path d="M186.082 50.302L181.419 52.5978" stroke="#143C18" stroke-linecap="round"/>
<path d="M186.025 64.8943L181.475 67.4059" stroke="#143C18" stroke-linecap="round"/>
<path d="M186.221 80.0439L181.28 81.6562" stroke="#143C18" stroke-linecap="round"/>
<path d="M186.348 95.646L181.154 95.4538" stroke="#143C18" stroke-linecap="round"/>
<path d="M186.057 111.447L181.443 109.054" stroke="#143C18" stroke-linecap="round"/>
<path d="M185.26 127.064L182.238 122.836" stroke="#143C18" stroke-linecap="round"/>
<path d="M184.174 142.214L183.326 137.086" stroke="#143C18" stroke-linecap="round"/>
<path d="M183.127 156.873L184.373 151.827" stroke="#143C18" stroke-linecap="round"/>
<path d="M182.363 171.247L185.138 166.853" stroke="#143C18" stroke-linecap="round"/>
<path d="M181.945 185.619L185.556 181.881" stroke="#143C18" stroke-linecap="round"/>
<path d="M181.826 200.197L185.674 196.703" stroke="#143C18" stroke-linecap="round"/>
<path d="M181.982 215.055L185.517 211.245" stroke="#143C18" stroke-linecap="round"/>
<path d="M182.465 230.109L185.033 225.591" stroke="#143C18" stroke-linecap="round"/>
<path d="M183.301 245.11L184.198 239.99" stroke="#143C18" stroke-linecap="round"/>
<path d="M184.334 259.782L183.165 254.718" stroke="#143C18" stroke-linecap="round"/>
<path d="M185.262 274.063L182.238 269.836" stroke="#143C18" stroke-linecap="round"/>
<path d="M185.873 288.15L181.629 285.15" stroke="#143C18" stroke-linecap="round"/>
<path d="M199.748 9.60083L197.151 5.09921" stroke="#143C18" stroke-linecap="round"/>
<path d="M200.844 23.0635L196.058 21.0367" stroke="#143C18" stroke-linecap="round"/>
<path d="M201.033 36.4656L195.867 37.0344" stroke="#143C18" stroke-linecap="round"/>
<path d="M200.844 50.4395L196.056 52.4606" stroke="#143C18" stroke-linecap="round"/>
<path d="M200.801 65.0425L196.099 67.2575" stroke="#143C18" stroke-linecap="round"/>
<path d="M200.959 80.1724L195.942 81.5275" stroke="#143C18" stroke-linecap="round"/>
<path d="M201.045 95.6987L195.856 95.4012" stroke="#143C18" stroke-linecap="round"/>
<path d="M200.787 111.386L196.112 109.114" stroke="#143C18" stroke-linecap="round"/>
<path d="M200.117 126.944L196.785 122.956" stroke="#143C18" stroke-linecap="round"/>
<path d="M199.158 142.151L197.744 137.15" stroke="#143C18" stroke-linecap="round"/>
<path d="M198.152 156.931L198.748 151.768" stroke="#143C18" stroke-linecap="round"/>
<path d="M197.336 171.398L199.563 166.702" stroke="#143C18" stroke-linecap="round"/>
<path d="M196.828 185.781L200.071 181.719" stroke="#143C18" stroke-linecap="round"/>
<path d="M196.623 200.297L200.279 196.603" stroke="#143C18" stroke-linecap="round"/>
<path d="M196.684 215.057L200.215 211.243" stroke="#143C18" stroke-linecap="round"/>
<path d="M197.035 230.03L199.865 225.67" stroke="#143C18" stroke-linecap="round"/>
<path d="M197.713 245.042L199.188 240.058" stroke="#143C18" stroke-linecap="round"/>
<path d="M198.648 259.841L198.251 254.659" stroke="#143C18" stroke-linecap="round"/>
<path d="M199.619 274.271L197.281 269.629" stroke="#143C18" stroke-linecap="round"/>
<path d="M200.381 288.39L196.521 284.91" stroke="#143C18" stroke-linecap="round"/>
<path d="M214.939 9.23413L211.36 5.46609" stroke="#143C18" stroke-linecap="round"/>
<path d="M215.689 22.6018L210.611 21.4983" stroke="#143C18" stroke-linecap="round"/>
<path d="M215.674 36.1328L210.625 37.3672" stroke="#143C18" stroke-linecap="round"/>
<path d="M215.457 50.2539L210.843 52.6462" stroke="#143C18" stroke-linecap="round"/>
<path d="M215.449 64.9407L210.849 67.3592" stroke="#143C18" stroke-linecap="round"/>
<path d="M215.637 80.094L210.664 81.606" stroke="#143C18" stroke-linecap="round"/>
<path d="M215.748 95.5891L210.551 95.5107" stroke="#143C18" stroke-linecap="round"/>
<path d="M215.559 111.223L210.739 109.277" stroke="#143C18" stroke-linecap="round"/>
<path d="M214.996 126.778L211.303 123.122" stroke="#143C18" stroke-linecap="round"/>
<path d="M214.123 142.06L212.178 137.24" stroke="#143C18" stroke-linecap="round"/>
<path d="M213.125 156.948L213.176 151.752" stroke="#143C18" stroke-linecap="round"/>
<path d="M212.242 171.485L214.059 166.615" stroke="#143C18" stroke-linecap="round"/>
<path d="M211.637 185.862L214.665 181.638" stroke="#143C18" stroke-linecap="round"/>
<path d="M211.338 200.313L214.962 196.587" stroke="#143C18" stroke-linecap="round"/>
<path d="M211.312 214.988L214.987 211.312" stroke="#143C18" stroke-linecap="round"/>
<path d="M211.559 229.905L214.74 225.795" stroke="#143C18" stroke-linecap="round"/>
<path d="M212.121 244.936L214.179 240.164" stroke="#143C18" stroke-linecap="round"/>
<path d="M212.994 259.844L213.305 254.656" stroke="#143C18" stroke-linecap="round"/>
<path d="M214.025 274.397L212.275 269.503" stroke="#143C18" stroke-linecap="round"/>
<path d="M214.945 288.529L211.354 284.772" stroke="#143C18" stroke-linecap="round"/>
<path d="M230.271 8.29517L225.43 6.40507" stroke="#143C18" stroke-linecap="round"/>
<path d="M230.418 21.6543L225.281 22.4455" stroke="#143C18" stroke-linecap="round"/>
<path d="M230.104 35.4575L225.595 38.0424" stroke="#143C18" stroke-linecap="round"/>
<path d="M229.877 49.8235L225.824 53.0763" stroke="#143C18" stroke-linecap="round"/>
<path d="M229.969 64.6462L225.73 67.6537" stroke="#143C18" stroke-linecap="round"/>
<path d="M230.254 79.8613L225.447 81.8386" stroke="#143C18" stroke-linecap="round"/>
<path d="M230.443 95.3726L225.258 95.7275" stroke="#143C18" stroke-linecap="round"/>
<path d="M230.334 111.012L225.365 109.488" stroke="#143C18" stroke-linecap="round"/>
<path d="M229.852 126.608L225.849 123.292" stroke="#143C18" stroke-linecap="round"/>
<path d="M229.02 141.97L226.679 137.33" stroke="#143C18" stroke-linecap="round"/>
<path d="M228 156.944L227.698 151.756" stroke="#143C18" stroke-linecap="round"/>
<path d="M227.043 171.52L228.656 166.58" stroke="#143C18" stroke-linecap="round"/>
<path d="M226.348 185.871L229.351 181.629" stroke="#143C18" stroke-linecap="round"/>
<path d="M225.971 200.245L229.729 196.655" stroke="#143C18" stroke-linecap="round"/>
<path d="M225.871 214.835L229.828 211.465" stroke="#143C18" stroke-linecap="round"/>
<path d="M226.033 229.707L229.668 225.993" stroke="#143C18" stroke-linecap="round"/>
<path d="M226.508 244.776L229.191 240.324" stroke="#143C18" stroke-linecap="round"/>
<path d="M227.354 259.801L228.347 254.699" stroke="#143C18" stroke-linecap="round"/>
<path d="M228.473 274.473L227.225 269.427" stroke="#143C18" stroke-linecap="round"/>
<path d="M229.568 288.599L226.13 284.701" stroke="#143C18" stroke-linecap="round"/>
<path d="M245.092 6.8103L240.008 7.88967" stroke="#143C18" stroke-linecap="round"/>
<path d="M244.635 20.498L240.466 23.602" stroke="#143C18" stroke-linecap="round"/>
<path d="M244.176 34.7227L240.924 38.7773" stroke="#143C18" stroke-linecap="round"/>
<path d="M244.082 49.3511L241.018 53.5492" stroke="#143C18" stroke-linecap="round"/>
<path d="M244.377 64.3018L240.723 67.9981" stroke="#143C18" stroke-linecap="round"/>
<path d="M244.824 79.5938L240.275 82.1064" stroke="#143C18" stroke-linecap="round"/>
<path d="M245.119 95.1614L239.98 95.9387" stroke="#143C18" stroke-linecap="round"/>
<path d="M245.078 110.853L240.023 109.647" stroke="#143C18" stroke-linecap="round"/>
<path d="M244.631 126.508L240.471 123.392" stroke="#143C18" stroke-linecap="round"/>
<path d="M243.797 141.93L241.303 137.37" stroke="#143C18" stroke-linecap="round"/>
<path d="M242.736 156.942L242.363 151.758" stroke="#143C18" stroke-linecap="round"/>
<path d="M241.717 171.511L243.384 166.589" stroke="#143C18" stroke-linecap="round"/>
<path d="M240.963 185.807L244.138 181.693" stroke="#143C18" stroke-linecap="round"/>
<path d="M240.541 200.098L244.559 196.802" stroke="#143C18" stroke-linecap="round"/>
<path d="M240.398 214.606L244.703 211.694" stroke="#143C18" stroke-linecap="round"/>
<path d="M240.492 229.438L244.606 226.262" stroke="#143C18" stroke-linecap="round"/>
<path d="M240.895 244.552L244.207 240.547" stroke="#143C18" stroke-linecap="round"/>
<path d="M241.723 259.713L243.377 254.787" stroke="#143C18" stroke-linecap="round"/>
<path d="M242.953 274.517L242.147 269.383" stroke="#143C18" stroke-linecap="round"/>
<path d="M244.232 288.63L240.866 284.67" stroke="#143C18" stroke-linecap="round"/>
<path d="M258.986 5.41577L255.515 9.28409" stroke="#143C18" stroke-linecap="round"/>
<path d="M258.293 19.6697L256.208 24.4302" stroke="#143C18" stroke-linecap="round"/>
<path d="M257.994 34.26L256.507 39.2398" stroke="#143C18" stroke-linecap="round"/>
<path d="M258.197 49.0305L256.301 53.8696" stroke="#143C18" stroke-linecap="round"/>
<path d="M258.777 64.0479L255.722 68.2523" stroke="#143C18" stroke-linecap="round"/>
<path d="M259.422 79.4233L255.078 82.2767" stroke="#143C18" stroke-linecap="round"/>
<path d="M259.807 95.0896L254.692 96.0106" stroke="#143C18" stroke-linecap="round"/>
<path d="M259.775 110.863L254.725 109.637" stroke="#143C18" stroke-linecap="round"/>
<path d="M259.289 126.561L255.21 123.339" stroke="#143C18" stroke-linecap="round"/>
<path d="M258.402 141.98L256.1 137.32" stroke="#143C18" stroke-linecap="round"/>
<path d="M257.295 156.948L257.204 151.752" stroke="#143C18" stroke-linecap="round"/>
<path d="M256.252 171.449L258.248 166.651" stroke="#143C18" stroke-linecap="round"/>
<path d="M255.496 185.668L259.003 181.832" stroke="#143C18" stroke-linecap="round"/>
<path d="M255.084 199.885L259.417 197.015" stroke="#143C18" stroke-linecap="round"/>
<path d="M254.936 214.333L259.563 211.967" stroke="#143C18" stroke-linecap="round"/>
<path d="M254.994 229.139L259.507 226.561" stroke="#143C18" stroke-linecap="round"/>
<path d="M255.33 244.301L259.171 240.799" stroke="#143C18" stroke-linecap="round"/>
<path d="M256.139 259.599L258.362 254.901" stroke="#143C18" stroke-linecap="round"/>
<path d="M257.471 274.539L257.03 269.361" stroke="#143C18" stroke-linecap="round"/>
<path d="M258.914 288.646L255.585 284.655" stroke="#143C18" stroke-linecap="round"/>
<path d="M272.363 4.78467L271.536 9.91557" stroke="#143C18" stroke-linecap="round"/>
<path d="M271.859 19.4529L272.041 24.6469" stroke="#143C18" stroke-linecap="round"/>
<path d="M271.906 34.1519L271.995 39.3483" stroke="#143C18" stroke-linecap="round"/>
<path d="M272.467 48.9033L271.433 53.9967" stroke="#143C18" stroke-linecap="round"/>
<path d="M273.342 63.9556L270.558 68.3443" stroke="#143C18" stroke-linecap="round"/>
<path d="M274.146 79.4619L269.753 82.2381" stroke="#143C18" stroke-linecap="round"/>
<path d="M274.535 95.2798L269.366 95.8203" stroke="#143C18" stroke-linecap="round"/>
<path d="M274.393 111.135L269.506 109.365" stroke="#143C18" stroke-linecap="round"/>
<path d="M273.768 126.807L270.131 123.093" stroke="#143C18" stroke-linecap="round"/>
<path d="M272.783 142.111L271.115 137.189" stroke="#143C18" stroke-linecap="round"/>
<path d="M271.662 156.933L272.239 151.767" stroke="#143C18" stroke-linecap="round"/>
<path d="M270.67 171.311L273.231 166.789" stroke="#143C18" stroke-linecap="round"/>
<path d="M269.99 185.456L273.911 182.044" stroke="#143C18" stroke-linecap="round"/>
<path d="M269.639 199.637L274.262 197.263" stroke="#143C18" stroke-linecap="round"/>
<path d="M269.52 214.071L274.379 212.229" stroke="#143C18" stroke-linecap="round"/>
<path d="M269.564 228.882L274.334 226.818" stroke="#143C18" stroke-linecap="round"/>
<path d="M269.857 244.092L274.042 241.009" stroke="#143C18" stroke-linecap="round"/>
<path d="M270.648 259.499L273.252 255.001" stroke="#143C18" stroke-linecap="round"/>
<path d="M272.049 274.547L271.851 269.353" stroke="#143C18" stroke-linecap="round"/>
<path d="M273.604 288.656L270.298 284.645" stroke="#143C18" stroke-linecap="round"/>
<path d="M286 4.83423L287.301 9.86589" stroke="#143C18" stroke-linecap="round"/>
<path d="M285.828 19.5847L287.471 24.5154" stroke="#143C18" stroke-linecap="round"/>
<path d="M286.217 34.1875L287.082 39.3123" stroke="#143C18" stroke-linecap="round"/>
<path d="M287.105 48.8916L286.194 54.0084" stroke="#143C18" stroke-linecap="round"/>
<path d="M288.209 64.0713L285.09 68.2288" stroke="#143C18" stroke-linecap="round"/>
<path d="M289.037 79.8213L284.265 81.8789" stroke="#143C18" stroke-linecap="round"/>
<path d="M289.234 95.824L284.066 95.276" stroke="#143C18" stroke-linecap="round"/>
<path d="M288.816 111.685L284.483 108.815" stroke="#143C18" stroke-linecap="round"/>
<path d="M287.973 127.187L285.327 122.713" stroke="#143C18" stroke-linecap="round"/>
<path d="M286.914 142.235L286.386 137.065" stroke="#143C18" stroke-linecap="round"/>
<path d="M285.865 156.827L287.434 151.873" stroke="#143C18" stroke-linecap="round"/>
<path d="M285.025 171.079L288.274 167.022" stroke="#143C18" stroke-linecap="round"/>
<path d="M284.494 185.2L288.807 182.3" stroke="#143C18" stroke-linecap="round"/>
<path d="M284.238 199.416L289.063 197.484" stroke="#143C18" stroke-linecap="round"/>
<path d="M284.16 213.897L289.138 212.403" stroke="#143C18" stroke-linecap="round"/>
<path d="M284.213 228.75L289.089 226.95" stroke="#143C18" stroke-linecap="round"/>
<path d="M284.494 244L288.808 241.1" stroke="#143C18" stroke-linecap="round"/>
<path d="M285.277 259.456L288.023 255.044" stroke="#143C18" stroke-linecap="round"/>
<path d="M286.703 274.548L286.599 269.352" stroke="#143C18" stroke-linecap="round"/>
<path d="M288.299 288.659L285.003 284.641" stroke="#143C18" stroke-linecap="round"/>
</svg>
