<svg width="1440" height="806" viewBox="0 0 1440 806" fill="none" xmlns="http://www.w3.org/2000/svg">
<g clip-path="url(#clip0_404_96)">
<rect width="1440" height="806" fill="#DDEFDD"/>
<g filter="url(#filter0_di_404_96)">
<path d="M751.539 -481L678 85.8655L1284.32 28.7898L913.123 290.819L1390.87 329.086L1350.35 667H1630" stroke="#EAEAEA" stroke-width="34"/>
</g>
<g filter="url(#filter1_di_404_96)">
<path d="M54.5386 -224L-19 342.866L587.318 285.79L216.123 547.819L693.874 586.086L653.353 924H933" stroke="#EAEAEA" stroke-width="34"/>
</g>
<g filter="url(#filter2_di_404_96)">
<path d="M397.539 -357L324 209.866L930.318 152.79L559.123 414.819L1036.87 453.086L996.353 791H1276" stroke="#EAEAEA" stroke-width="34"/>
</g>
<g filter="url(#filter3_di_404_96)">
<path d="M193.764 503.939C187.799 507.73 182.793 510.056 178.747 510.916C174.766 511.736 171.318 511.27 168.405 509.52C165.451 507.705 162.614 504.87 159.894 501.016L123.876 448.805L137.346 440.244L169.267 486.009C171.27 488.878 172.998 490.887 174.448 492.037C175.899 493.186 177.493 493.568 179.23 493.185C181.032 492.76 183.343 491.651 186.166 489.858C188.603 488.309 190.743 487.85 192.584 488.48C194.449 489.006 195.973 490.199 197.155 492.059C198.419 494.047 198.805 496.143 198.314 498.346C197.782 500.485 196.266 502.349 193.764 503.939ZM193.895 503.856L186.297 489.775C188.734 488.226 190.516 486.778 191.641 485.432C192.831 484.046 193.415 482.414 193.393 480.537C193.394 478.555 192.827 476.034 191.693 472.973C190.622 469.871 188.981 465.872 186.769 460.974L200.718 455.081C201.201 456.124 201.722 457.369 202.281 458.815C202.904 460.22 203.547 461.658 204.21 463.127C204.897 464.491 205.608 465.751 206.341 466.905C207.32 468.445 208.476 469.556 209.811 470.239C211.168 470.817 212.897 470.844 214.995 470.32C217.158 469.756 219.907 468.414 223.243 466.295C225.68 464.746 227.82 464.287 229.661 464.917C231.462 465.484 232.954 466.697 234.136 468.557C235.399 470.546 235.786 472.641 235.295 474.844C234.827 476.942 233.343 478.786 230.841 480.376C226.415 483.189 222.558 485.055 219.27 485.974C215.982 486.893 213.033 486.786 210.422 485.654C207.811 484.521 205.213 482.345 202.627 479.126L207.245 476.191C208.047 480.004 208.27 483.329 207.912 486.168C207.514 488.942 206.639 491.39 205.285 493.511C203.931 495.632 202.246 497.513 200.228 499.156C198.315 500.822 196.204 502.389 193.895 503.856ZM225.084 515.102C223.224 516.284 221.213 516.661 219.051 516.235C216.953 515.767 215.312 514.603 214.13 512.743C212.948 510.883 212.55 508.839 212.936 506.613C213.427 504.41 214.603 502.717 216.463 501.535C218.323 500.353 220.323 500.028 222.461 500.56C224.705 501.115 226.418 502.322 227.6 504.183C228.783 506.043 229.108 508.042 228.576 510.181C228.108 512.279 226.945 513.919 225.084 515.102ZM230.821 480.389L223.223 466.308C226.686 464.106 229.996 461.733 233.151 459.188C236.306 456.642 239.242 453.966 241.96 451.158C244.678 448.35 247.093 445.42 249.205 442.366C251.381 439.273 253.202 436.044 254.667 432.682C252.009 432.75 249.292 433.081 246.517 433.674C243.742 434.267 240.95 435.186 238.139 436.432C235.353 437.573 232.548 439.04 229.726 440.833C228.699 441.486 227.629 442.211 226.515 443.008C225.466 443.766 224.425 444.607 223.393 445.533C222.319 446.395 221.287 447.322 220.296 448.312L209.994 436.353C211.528 434.658 213.261 433.062 215.191 431.565C217.145 429.963 218.923 428.653 220.527 427.634C223.991 425.433 227.41 423.8 230.786 422.735C234.226 421.63 237.531 420.88 240.702 420.485C243.937 420.05 246.98 419.737 249.831 419.547C252.745 419.315 255.409 418.973 257.823 418.52C260.301 418.026 262.469 417.188 264.33 416.006L267.889 413.743L277.561 425.561C274.885 427.442 272.633 429.639 270.807 432.15C269.005 434.556 267.365 437.219 265.889 440.138C264.436 442.953 262.831 445.954 261.074 449.141C259.382 452.288 257.276 455.562 254.756 458.965C252.236 462.367 249.06 465.872 245.228 469.477C241.396 473.083 236.594 476.72 230.821 480.389ZM302.837 465.149L290.348 456.336C293.014 453.021 295.268 449.697 297.112 446.364C299.02 442.991 300.442 439.701 301.376 436.496C302.311 433.29 302.663 430.23 302.431 427.316C302.159 424.337 301.208 421.565 299.577 418.999C297.865 416.305 295.381 413.742 292.124 411.309C288.867 408.876 285.312 406.543 281.461 404.308L290.213 390.236C292.631 391.491 294.991 393.008 297.292 394.787C299.617 396.461 301.639 398.013 303.357 399.442C305.076 400.871 306.235 401.846 306.835 402.365C309.69 404.873 312.213 406.151 314.405 406.199C316.661 406.206 319.553 405.089 323.08 402.847C325.518 401.298 327.657 400.838 329.499 401.469C331.364 401.995 332.887 403.188 334.07 405.048C335.333 407.036 335.72 409.132 335.229 411.335C334.697 413.474 333.18 415.338 330.679 416.928C328.049 418.599 325.495 419.682 323.017 420.176C320.54 420.67 318.223 420.567 316.067 419.866C313.974 419.124 312.136 417.861 310.552 416.077L315.396 415.835C317.171 419.479 318.087 423.399 318.143 427.596C318.304 431.817 317.756 436.127 316.5 440.527C315.244 444.927 313.432 449.23 311.063 453.437C308.693 457.645 305.951 461.548 302.837 465.149ZM330.794 416.855L323.195 402.774C324.671 401.836 325.697 400.688 326.275 399.331C326.876 397.868 327.204 395.904 327.258 393.438C327.271 390.908 327.09 387.647 326.713 383.654C326.192 378.582 326.264 374.304 326.931 370.819C327.661 367.293 328.832 364.388 330.442 362.104C332.076 359.715 334.015 357.807 336.26 356.38C339.082 354.587 342.099 353.525 345.311 353.194C348.523 352.864 351.7 353.187 354.841 354.162C357.941 355.073 360.829 356.57 363.503 358.653C366.201 360.63 368.446 363.03 370.24 365.852C372.4 369.252 373.619 372.8 373.897 376.495C374.198 380.086 373.575 383.499 372.028 386.733C370.505 389.862 368.108 392.466 364.836 394.545C362.078 396.298 358.565 397.855 354.298 399.216C350.03 400.578 344.898 401.003 338.9 400.492L336.408 385.732C340.558 385.886 344.17 385.617 347.242 384.925C350.378 384.193 352.78 383.297 354.448 382.237C355.731 381.422 356.708 380.621 357.379 379.834C358.049 379.048 358.394 378.243 358.412 377.422C358.43 376.6 358.133 375.708 357.522 374.746C356.665 373.399 355.468 372.223 353.93 371.22C352.392 370.216 350.772 369.58 349.07 369.311C347.391 368.937 345.847 369.198 344.435 370.095C343.088 370.951 342.26 372.198 341.95 373.836C341.664 375.368 341.662 377.35 341.946 379.781C342.254 382.107 342.573 384.876 342.903 388.088C343.303 391.976 343.429 395.363 343.282 398.248C343.094 401.069 342.564 403.566 341.695 405.74C340.848 407.809 339.509 409.74 337.678 411.535C335.911 413.288 333.616 415.061 330.794 416.855Z" fill="#EAEAEA"/>
</g>
</g>
<defs>
<filter id="filter0_di_404_96" x="654.402" y="-483.187" width="979.598" height="1175.19" filterUnits="userSpaceOnUse" color-interpolation-filters="sRGB">
<feFlood flood-opacity="0" result="BackgroundImageFix"/>
<feColorMatrix in="SourceAlpha" type="matrix" values="0 0 0 0 0 0 0 0 0 0 0 0 0 0 0 0 0 0 127 0" result="hardAlpha"/>
<feOffset dy="4"/>
<feGaussianBlur stdDeviation="2"/>
<feComposite in2="hardAlpha" operator="out"/>
<feColorMatrix type="matrix" values="0 0 0 0 1 0 0 0 0 1 0 0 0 0 1 0 0 0 0.25 0"/>
<feBlend mode="normal" in2="BackgroundImageFix" result="effect1_dropShadow_404_96"/>
<feBlend mode="normal" in="SourceGraphic" in2="effect1_dropShadow_404_96" result="shape"/>
<feColorMatrix in="SourceAlpha" type="matrix" values="0 0 0 0 0 0 0 0 0 0 0 0 0 0 0 0 0 0 127 0" result="hardAlpha"/>
<feOffset dy="4"/>
<feGaussianBlur stdDeviation="2"/>
<feComposite in2="hardAlpha" operator="arithmetic" k2="-1" k3="1"/>
<feColorMatrix type="matrix" values="0 0 0 0 1 0 0 0 0 1 0 0 0 0 1 0 0 0 0.25 0"/>
<feBlend mode="normal" in2="shape" result="effect2_innerShadow_404_96"/>
</filter>
<filter id="filter1_di_404_96" x="-42.5977" y="-226.187" width="979.598" height="1175.19" filterUnits="userSpaceOnUse" color-interpolation-filters="sRGB">
<feFlood flood-opacity="0" result="BackgroundImageFix"/>
<feColorMatrix in="SourceAlpha" type="matrix" values="0 0 0 0 0 0 0 0 0 0 0 0 0 0 0 0 0 0 127 0" result="hardAlpha"/>
<feOffset dy="4"/>
<feGaussianBlur stdDeviation="2"/>
<feComposite in2="hardAlpha" operator="out"/>
<feColorMatrix type="matrix" values="0 0 0 0 1 0 0 0 0 1 0 0 0 0 1 0 0 0 0.25 0"/>
<feBlend mode="normal" in2="BackgroundImageFix" result="effect1_dropShadow_404_96"/>
<feBlend mode="normal" in="SourceGraphic" in2="effect1_dropShadow_404_96" result="shape"/>
<feColorMatrix in="SourceAlpha" type="matrix" values="0 0 0 0 0 0 0 0 0 0 0 0 0 0 0 0 0 0 127 0" result="hardAlpha"/>
<feOffset dy="4"/>
<feGaussianBlur stdDeviation="2"/>
<feComposite in2="hardAlpha" operator="arithmetic" k2="-1" k3="1"/>
<feColorMatrix type="matrix" values="0 0 0 0 1 0 0 0 0 1 0 0 0 0 1 0 0 0 0.25 0"/>
<feBlend mode="normal" in2="shape" result="effect2_innerShadow_404_96"/>
</filter>
<filter id="filter2_di_404_96" x="300.402" y="-359.187" width="979.598" height="1175.19" filterUnits="userSpaceOnUse" color-interpolation-filters="sRGB">
<feFlood flood-opacity="0" result="BackgroundImageFix"/>
<feColorMatrix in="SourceAlpha" type="matrix" values="0 0 0 0 0 0 0 0 0 0 0 0 0 0 0 0 0 0 127 0" result="hardAlpha"/>
<feOffset dy="4"/>
<feGaussianBlur stdDeviation="2"/>
<feComposite in2="hardAlpha" operator="out"/>
<feColorMatrix type="matrix" values="0 0 0 0 1 0 0 0 0 1 0 0 0 0 1 0 0 0 0.25 0"/>
<feBlend mode="normal" in2="BackgroundImageFix" result="effect1_dropShadow_404_96"/>
<feBlend mode="normal" in="SourceGraphic" in2="effect1_dropShadow_404_96" result="shape"/>
<feColorMatrix in="SourceAlpha" type="matrix" values="0 0 0 0 0 0 0 0 0 0 0 0 0 0 0 0 0 0 127 0" result="hardAlpha"/>
<feOffset dy="4"/>
<feGaussianBlur stdDeviation="2"/>
<feComposite in2="hardAlpha" operator="arithmetic" k2="-1" k3="1"/>
<feColorMatrix type="matrix" values="0 0 0 0 1 0 0 0 0 1 0 0 0 0 1 0 0 0 0.25 0"/>
<feBlend mode="normal" in2="shape" result="effect2_innerShadow_404_96"/>
</filter>
<filter id="filter3_di_404_96" x="119.875" y="313.416" width="280.168" height="236.428" filterUnits="userSpaceOnUse" color-interpolation-filters="sRGB">
<feFlood flood-opacity="0" result="BackgroundImageFix"/>
<feColorMatrix in="SourceAlpha" type="matrix" values="0 0 0 0 0 0 0 0 0 0 0 0 0 0 0 0 0 0 127 0" result="hardAlpha"/>
<feOffset dy="4"/>
<feGaussianBlur stdDeviation="2"/>
<feComposite in2="hardAlpha" operator="out"/>
<feColorMatrix type="matrix" values="0 0 0 0 1 0 0 0 0 1 0 0 0 0 1 0 0 0 0.25 0"/>
<feBlend mode="normal" in2="BackgroundImageFix" result="effect1_dropShadow_404_96"/>
<feBlend mode="normal" in="SourceGraphic" in2="effect1_dropShadow_404_96" result="shape"/>
<feColorMatrix in="SourceAlpha" type="matrix" values="0 0 0 0 0 0 0 0 0 0 0 0 0 0 0 0 0 0 127 0" result="hardAlpha"/>
<feOffset dy="4"/>
<feGaussianBlur stdDeviation="2"/>
<feComposite in2="hardAlpha" operator="arithmetic" k2="-1" k3="1"/>
<feColorMatrix type="matrix" values="0 0 0 0 1 0 0 0 0 1 0 0 0 0 1 0 0 0 0.25 0"/>
<feBlend mode="normal" in2="shape" result="effect2_innerShadow_404_96"/>
</filter>
<clipPath id="clip0_404_96">
<rect width="1440" height="806" fill="white"/>
</clipPath>
</defs>
</svg>
