<svg width="244" height="138" viewBox="0 0 244 138" fill="none" xmlns="http://www.w3.org/2000/svg">
<path d="M89.0496 58.0862L88.8785 58.0585L88.727 58.1426C79.3691 63.3355 67.0337 66.5 53.5 66.5C38.8053 66.5 25.5254 62.7694 15.9351 56.7643C6.33796 50.7548 0.5 42.5166 0.5 33.5C0.5 24.4834 6.33796 16.2452 15.9351 10.2357C25.5254 4.23059 38.8053 0.5 53.5 0.5C68.1947 0.5 81.4746 4.23059 91.0649 10.2357C100.662 16.2452 106.5 24.4834 106.5 33.5C106.5 39.3914 104.011 44.9431 99.6095 49.7647L99.3986 49.9957L99.5142 50.2865L103.549 60.4362L89.0496 58.0862Z" stroke="#22FF38"/>
<path d="M22.24 12.39V11.39H21.24V12.39H22.24ZM27.63 12.39H28.63V11.39H27.63V12.39ZM27.63 12.88L28.3982 13.5202L28.63 13.242V12.88H27.63ZM27.21 13.79L26.2201 13.6486L26.2201 13.6486L27.21 13.79ZM27.14 30.8H26.14V31.8H27.14V30.8ZM37.01 30.8V31.8H38.01V30.8H37.01ZM37.01 12.39V11.39H36.01V12.39H37.01ZM42.4 12.39H43.4V11.39H42.4V12.39ZM42.4 12.88L43.2321 13.4347L43.4 13.1828V12.88H42.4ZM41.98 13.79L41.0185 13.5153L40.9997 13.581L40.9901 13.6486L41.98 13.79ZM41.91 56V57H42.91V56H41.91ZM37.01 56H36.01V57H37.01V56ZM37.01 35.42H38.01V34.42H37.01V35.42ZM27.14 35.42V34.42H26.14V35.42H27.14ZM27.14 56V57H28.14V56H27.14ZM22.24 56H21.24V57H22.24V56ZM22.24 13.39H27.14V11.39H22.24V13.39ZM27.14 13.39H27.63V11.39H27.14V13.39ZM26.63 12.39V12.88H28.63V12.39H26.63ZM26.8618 12.2398C26.5225 12.6469 26.2956 13.1195 26.2201 13.6486L28.2 13.9314C28.2177 13.8072 28.2708 13.6731 28.3982 13.5202L26.8618 12.2398ZM26.2201 13.6486C26.1623 14.0529 26.14 14.6766 26.14 15.47H28.14C28.14 14.6767 28.1644 14.1805 28.2 13.9314L26.2201 13.6486ZM26.14 15.47V30.8H28.14V15.47H26.14ZM27.14 31.8H37.01V29.8H27.14V31.8ZM38.01 30.8V12.39H36.01V30.8H38.01ZM37.01 13.39H41.91V11.39H37.01V13.39ZM41.91 13.39H42.4V11.39H41.91V13.39ZM41.4 12.39V12.88H43.4V12.39H41.4ZM41.568 12.3253C41.3234 12.6922 41.14 13.0901 41.0185 13.5153L42.9415 14.0647C43.0067 13.8365 43.1033 13.6278 43.2321 13.4347L41.568 12.3253ZM40.9901 13.6486C40.9323 14.0529 40.91 14.6766 40.91 15.47H42.91C42.91 14.6767 42.9344 14.1805 42.97 13.9314L40.9901 13.6486ZM40.91 15.47V56H42.91V15.47H40.91ZM41.91 55H37.01V57H41.91V55ZM38.01 56V35.42H36.01V56H38.01ZM37.01 34.42H27.14V36.42H37.01V34.42ZM26.14 35.42V56H28.14V35.42H26.14ZM27.14 55H22.24V57H27.14V55ZM23.24 56V12.39H21.24V56H23.24ZM48.3894 56H47.3894V57H48.3894V56ZM48.3894 51.38V50.38H47.3894V51.38H48.3894ZM54.1294 51.38V52.38H55.1294V51.38H54.1294ZM54.1294 17.08H55.1294V16.08H54.1294V17.08ZM48.5994 17.08H47.5994V18.08H48.5994V17.08ZM48.5994 12.39V11.39H47.5994V12.39H48.5994ZM64.5594 12.39H65.5594V11.39H64.5594V12.39ZM64.5594 17.08V18.08H65.5594V17.08H64.5594ZM58.8894 17.08V16.08H57.8894V17.08H58.8894ZM58.8894 51.45H57.8894V52.45H58.8894V51.45ZM64.8394 51.45H65.8394V50.45H64.8394V51.45ZM64.8394 56V57H65.8394V56H64.8394ZM49.3894 56V51.38H47.3894V56H49.3894ZM48.3894 52.38H54.1294V50.38H48.3894V52.38ZM55.1294 51.38V17.08H53.1294V51.38H55.1294ZM54.1294 16.08H48.5994V18.08H54.1294V16.08ZM49.5994 17.08V12.39H47.5994V17.08H49.5994ZM48.5994 13.39H64.5594V11.39H48.5994V13.39ZM63.5594 12.39V17.08H65.5594V12.39H63.5594ZM64.5594 16.08H58.8894V18.08H64.5594V16.08ZM57.8894 17.08V51.45H59.8894V17.08H57.8894ZM58.8894 52.45H64.8394V50.45H58.8894V52.45ZM63.8394 51.45V56H65.8394V51.45H63.8394ZM64.8394 55H48.3894V57H64.8394V55ZM79.4388 42.28L78.4401 42.3317L78.4891 43.28H79.4388V42.28ZM77.9688 13.86H76.9688V13.8858L76.9701 13.9117L77.9688 13.86ZM78.3188 11.34L79.2605 11.6763L79.2641 11.6663L79.2674 11.6562L78.3188 11.34ZM79.3688 9.8L79.9422 10.6192L79.9496 10.614L79.9569 10.6087L79.3688 9.8ZM82.7288 9.8L82.1041 10.5809L82.1291 10.6009L82.1553 10.6192L82.7288 9.8ZM83.7788 11.48L82.8194 11.7622L82.8296 11.7971L82.8424 11.8311L83.7788 11.48ZM84.1988 14.49L85.1971 14.5478L85.1988 14.5189V14.49H84.1988ZM82.5888 42.28V43.28H83.5325L83.5871 42.3378L82.5888 42.28ZM78.5988 55.72L77.8692 56.4039L77.8802 56.4157L77.8916 56.4271L78.5988 55.72ZM78.5988 50.4L77.8692 49.7161L77.8692 49.7161L78.5988 50.4ZM83.5688 50.4L82.8392 51.0839L82.8502 51.0957L82.8616 51.1071L83.5688 50.4ZM83.5688 55.65L82.8616 54.9429L82.8502 54.9543L82.8392 54.9661L83.5688 55.65ZM80.4374 42.2283L78.9674 13.8083L76.9701 13.9117L78.4401 42.3317L80.4374 42.2283ZM78.9688 13.86C78.9688 12.8982 79.0795 12.1832 79.2605 11.6763L77.377 11.0037C77.0914 11.8035 76.9688 12.7684 76.9688 13.86H78.9688ZM79.2674 11.6562C79.453 11.0996 79.6971 10.7908 79.9422 10.6192L78.7953 8.98076C78.1071 9.4625 77.6512 10.1804 77.3701 11.0238L79.2674 11.6562ZM79.9569 10.6087C80.3078 10.3536 80.6636 10.24 81.0488 10.24V8.24C80.2205 8.24 79.4564 8.49975 78.7806 8.99126L79.9569 10.6087ZM81.0488 10.24C81.4976 10.24 81.8316 10.3629 82.1041 10.5809L83.3534 9.01913C82.6926 8.49047 81.9066 8.24 81.0488 8.24V10.24ZM82.1553 10.6192C82.3684 10.7684 82.622 11.0911 82.8194 11.7622L84.7381 11.1978C84.4688 10.2822 84.0224 9.48489 83.3022 8.98076L82.1553 10.6192ZM82.8424 11.8311C83.0631 12.4196 83.1988 13.2885 83.1988 14.49H85.1988C85.1988 13.1715 85.0544 12.0337 84.7151 11.1289L82.8424 11.8311ZM83.2004 14.4322L81.5904 42.2222L83.5871 42.3378L85.1971 14.5478L83.2004 14.4322ZM82.5888 41.28H79.4388V43.28H82.5888V41.28ZM81.0488 55.77C80.398 55.77 79.8309 55.538 79.3059 55.0129L77.8916 56.4271C78.7666 57.302 79.8329 57.77 81.0488 57.77V55.77ZM79.3283 55.0361C78.8027 54.4754 78.5488 53.8335 78.5488 53.06H76.5488C76.5488 54.3398 76.9948 55.4713 77.8692 56.4039L79.3283 55.0361ZM78.5488 53.06C78.5488 52.2865 78.8027 51.6446 79.3283 51.0839L77.8692 49.7161C76.9948 50.6487 76.5488 51.7802 76.5488 53.06H78.5488ZM79.3283 51.0839C79.8595 50.5173 80.4202 50.28 81.0488 50.28V48.28C79.8107 48.28 78.738 48.7894 77.8692 49.7161L79.3283 51.0839ZM81.0488 50.28C81.7388 50.28 82.3188 50.5289 82.8392 51.0839L84.2983 49.7161C83.4187 48.7778 82.3187 48.28 81.0488 48.28V50.28ZM82.8616 51.1071C83.4268 51.6722 83.6888 52.3069 83.6888 53.06H85.6888C85.6888 51.7598 85.2041 50.6211 84.2759 49.6929L82.8616 51.1071ZM83.6888 53.06C83.6888 53.7529 83.4368 54.3677 82.8616 54.9429L84.2759 56.3571C85.194 55.439 85.6888 54.3271 85.6888 53.06H83.6888ZM82.8392 54.9661C82.3188 55.5211 81.7388 55.77 81.0488 55.77V57.77C82.3187 57.77 83.4187 57.2722 84.2983 56.3339L82.8392 54.9661Z" fill="#22FF38"/>
<circle cx="179.5" cy="73.5" r="64" stroke="#22FF38"/>
<rect x="147.5" y="44.5" width="14" height="25" rx="7" stroke="#22FF38"/>
<rect x="197.5" y="44.5" width="14" height="25" rx="7" stroke="#22FF38"/>
<path d="M155 105.5C155 105.5 170.229 112.5 180 112.5C189.771 112.5 205 105.5 205 105.5" stroke="#22FF38"/>
</svg>
