<svg width="1440" height="806" viewBox="0 0 1440 806" fill="none" xmlns="http://www.w3.org/2000/svg">
<g clip-path="url(#clip0_417_145)">
<rect width="1440" height="806" fill="#DDEFDD"/>
<g filter="url(#filter0_di_417_145)">
<path d="M668.539 -14L648.5 162.5M675.5 644.5L187 594H107M675.5 644.5L800 669L811.853 752.5H1091.5V805.5M675.5 644.5L1244 594H1351.25M648.5 162.5L217.5 191.5H107M648.5 162.5L1260 191.5M1260 191.5L1258.5 -1.5M1260 191.5H1351.25M1437 594H1351.25M1442.5 191.5H1351.25M-3.5 191.5H107M-3.5 594H107M1351.25 191.5V594M107 191.5V594" stroke="#EAEAEA" stroke-width="34" shape-rendering="crispEdges"/>
</g>
</g>
<defs>
<filter id="filter0_di_417_145" x="-7.5" y="-15.9177" width="1454" height="829.418" filterUnits="userSpaceOnUse" color-interpolation-filters="sRGB">
<feFlood flood-opacity="0" result="BackgroundImageFix"/>
<feColorMatrix in="SourceAlpha" type="matrix" values="0 0 0 0 0 0 0 0 0 0 0 0 0 0 0 0 0 0 127 0" result="hardAlpha"/>
<feOffset dy="4"/>
<feGaussianBlur stdDeviation="2"/>
<feComposite in2="hardAlpha" operator="out"/>
<feColorMatrix type="matrix" values="0 0 0 0 1 0 0 0 0 1 0 0 0 0 1 0 0 0 0.25 0"/>
<feBlend mode="normal" in2="BackgroundImageFix" result="effect1_dropShadow_417_145"/>
<feBlend mode="normal" in="SourceGraphic" in2="effect1_dropShadow_417_145" result="shape"/>
<feColorMatrix in="SourceAlpha" type="matrix" values="0 0 0 0 0 0 0 0 0 0 0 0 0 0 0 0 0 0 127 0" result="hardAlpha"/>
<feOffset dy="4"/>
<feGaussianBlur stdDeviation="2"/>
<feComposite in2="hardAlpha" operator="arithmetic" k2="-1" k3="1"/>
<feColorMatrix type="matrix" values="0 0 0 0 1 0 0 0 0 1 0 0 0 0 1 0 0 0 0.25 0"/>
<feBlend mode="normal" in2="shape" result="effect2_innerShadow_417_145"/>
</filter>
<clipPath id="clip0_417_145">
<rect width="1440" height="806" fill="white"/>
</clipPath>
</defs>
</svg>
