<svg width="665" height="226" viewBox="0 0 665 226" fill="none" xmlns="http://www.w3.org/2000/svg">
<path d="M32.936 199.16L33.6802 198.492L33.6802 198.492L32.936 199.16ZM14.456 165.896L13.5012 166.193L13.5042 166.203L13.5073 166.212L14.456 165.896ZM13.112 74.504L12.1518 74.2247L12.1495 74.2328L12.1472 74.2409L13.112 74.504ZM27.224 43.592L28.0423 44.167L28.0493 44.1567L27.224 43.592ZM47.048 23.096L47.6198 23.9164L47.628 23.9106L47.6362 23.9047L47.048 23.096ZM70.232 11.672L70.4996 12.6355L70.512 12.6321L70.5242 12.6283L70.232 11.672ZM135.08 18.728L134.541 19.5703L134.551 19.5765L134.561 19.5825L135.08 18.728ZM161.288 48.968L161.924 49.7396L162.517 49.2507L162.197 48.5519L161.288 48.968ZM136.424 69.464L135.788 68.6924L135.781 68.6985L135.773 68.7047L136.424 69.464ZM134.072 71.48L133.319 72.1385L133.971 72.8834L134.723 72.2392L134.072 71.48ZM131.72 68.792L130.728 68.668L130.672 69.113L130.967 69.4505L131.72 68.792ZM131.384 63.752L130.414 63.9945L130.418 64.0107L130.422 64.0267L131.384 63.752ZM127.688 56.696L128.51 56.1268L128.49 56.0983L128.469 56.0713L127.688 56.696ZM80.312 47.624L80.7883 48.5034L80.8006 48.4965L80.312 47.624ZM65.528 61.064L66.3316 61.6592L66.3316 61.6592L65.528 61.064ZM54.776 83.912L55.7339 84.1993L55.7357 84.1929L54.776 83.912ZM53.768 147.416L52.7913 147.63L52.7944 147.645L52.7979 147.659L53.768 147.416ZM62.84 170.6L61.9773 171.106L61.9812 171.112L61.9852 171.119L62.84 170.6ZM76.28 185.048L75.7337 185.886L75.7546 185.899L75.7761 185.912L76.28 185.048ZM108.2 187.736L107.899 186.782L107.899 186.782L108.2 187.736ZM119.96 181.016L120.619 181.769L120.631 181.757L120.644 181.746L119.96 181.016ZM130.04 167.576L130.634 166.772L129.722 166.098L129.167 167.087L130.04 167.576ZM159.608 189.416L160.455 189.947L160.948 189.162L160.202 188.612L159.608 189.416ZM130.712 217.304L131.137 218.209L131.144 218.206L131.152 218.202L130.712 217.304ZM92.072 224.032C80.7756 224.032 70.1565 221.928 60.205 217.727L59.427 219.569C69.6355 223.88 80.5204 226.032 92.072 226.032V224.032ZM60.205 217.727C50.2703 213.532 41.4292 207.127 33.6802 198.492L32.1918 199.828C40.1228 208.665 49.2017 215.252 59.427 219.569L60.205 217.727ZM33.6802 198.492C25.9486 189.877 19.8501 178.916 15.4047 165.58L13.5073 166.212C18.0219 179.756 24.2434 190.971 32.1918 199.828L33.6802 198.492ZM15.4108 165.599C11.1922 152.055 9.072 136.032 9.072 117.512H7.072C7.072 136.176 9.20783 152.409 13.5012 166.193L15.4108 165.599ZM9.072 117.512C9.072 101.225 10.7456 86.9813 14.0768 74.7671L12.1472 74.2409C8.75838 86.6667 7.072 101.095 7.072 117.512H9.072ZM14.0722 74.7833C17.6333 62.5421 22.2958 52.3445 28.0422 44.1669L26.4058 43.0171C20.5042 51.4155 15.7587 61.8258 12.1518 74.2247L14.0722 74.7833ZM28.0493 44.1567C33.8147 35.7303 40.3403 28.9899 47.6198 23.9164L46.4762 22.2756C38.9717 27.506 32.2813 34.4297 26.3987 43.0273L28.0493 44.1567ZM47.6362 23.9047C54.9404 18.5926 62.5611 14.8407 70.4996 12.6355L69.9644 10.7085C61.775 12.9833 53.9396 16.8474 46.4598 22.2872L47.6362 23.9047ZM70.5242 12.6283C78.5006 10.1911 86.3542 8.976 94.088 8.976V6.976C86.1418 6.976 78.0914 8.22489 69.9398 10.7156L70.5242 12.6283ZM94.088 8.976C110.066 8.976 123.533 12.5253 134.541 19.5703L135.619 17.8857C124.227 10.5947 110.366 6.976 94.088 6.976V8.976ZM134.561 19.5825C145.799 26.4136 154.406 36.3334 160.379 49.3841L162.197 48.5519C156.074 35.1706 147.209 24.9304 135.599 17.8735L134.561 19.5825ZM160.652 48.1964L135.788 68.6924L137.06 70.2356L161.924 49.7396L160.652 48.1964ZM135.773 68.7047L133.421 70.7207L134.723 72.2392L137.075 70.2232L135.773 68.7047ZM134.825 70.8215L132.473 68.1335L130.967 69.4505L133.319 72.1385L134.825 70.8215ZM132.712 68.916C132.951 67.0048 132.834 65.188 132.346 63.4773L130.422 64.0267C130.83 65.452 130.937 66.9952 130.728 68.668L132.712 68.916ZM132.354 63.5095C131.861 61.5371 130.544 59.0641 128.51 56.1268L126.866 57.2652C128.864 60.1519 130.011 62.3829 130.414 63.9945L132.354 63.5095ZM128.469 56.0713C123.907 50.3696 118.946 46.534 113.569 44.6635L112.911 46.5525C117.838 48.266 122.509 51.8224 126.907 57.3207L128.469 56.0713ZM113.569 44.6635C108.312 42.8353 102.937 41.92 97.448 41.92V43.92C102.711 43.92 107.864 44.7967 112.911 46.5525L113.569 44.6635ZM97.448 41.92C91.4359 41.92 85.5571 43.5406 79.8234 46.7515L80.8006 48.4965C86.2669 45.4354 91.8121 43.92 97.448 43.92V41.92ZM79.8357 46.7447C74.305 49.7405 69.2718 54.3298 64.7244 60.4688L66.3316 61.6592C70.7442 55.7022 75.567 51.3315 80.7883 48.5033L79.8357 46.7447ZM64.7244 60.4688C60.1581 66.6333 56.5288 74.3633 53.8163 83.6311L55.7357 84.1929C58.3992 75.0927 61.9379 67.5907 66.3316 61.6592L64.7244 60.4688ZM53.8182 83.6246C51.095 92.702 49.744 103.444 49.744 115.832H51.744C51.744 103.58 53.081 93.042 55.7338 84.1993L53.8182 83.6246ZM49.744 115.832C49.744 127.758 50.7564 138.36 52.7913 147.63L54.7447 147.202C52.7476 138.104 51.744 127.65 51.744 115.832H49.744ZM52.7979 147.659C55.0559 156.691 58.1117 164.511 61.9773 171.106L63.7027 170.094C59.9523 163.697 56.9601 156.061 54.7381 147.173L52.7979 147.659ZM61.9852 171.119C65.8561 177.495 70.4344 182.43 75.7337 185.886L76.8263 184.21C71.8216 180.946 67.4399 176.249 63.6948 170.081L61.9852 171.119ZM75.7761 185.912C81.3063 189.138 87.3044 190.752 93.752 190.752V188.752C87.6556 188.752 82.0057 187.23 76.7839 184.184L75.7761 185.912ZM93.752 190.752C99.21 190.752 104.13 190.07 108.501 188.69L107.899 186.782C103.758 188.09 99.046 188.752 93.752 188.752V190.752ZM108.501 188.69C112.898 187.301 116.938 184.989 120.619 181.769L119.302 180.263C115.814 183.315 112.014 185.483 107.899 186.782L108.501 188.69ZM120.644 181.746C124.322 178.298 127.741 173.728 130.913 168.065L129.167 167.087C126.067 172.624 122.766 177.014 119.276 180.286L120.644 181.746ZM129.446 168.38L159.014 190.22L160.202 188.612L130.634 166.772L129.446 168.38ZM158.761 188.885C150.545 201.986 141.04 211.132 130.272 216.406L131.152 218.202C142.336 212.724 152.095 203.278 160.455 189.947L158.761 188.885ZM130.287 216.399C119.47 221.476 106.741 224.032 92.072 224.032V226.032C106.971 226.032 120.002 223.436 131.137 218.209L130.287 216.399ZM178.424 11.672V10.672H177.424V11.672H178.424ZM224.12 11.672H225.12V10.672H224.12V11.672ZM224.12 15.032L224.888 15.6722L225.12 15.394V15.032H224.12ZM221.768 19.4L220.806 19.1253L220.788 19.1909L220.778 19.2586L221.768 19.4ZM221.432 95H220.432V96H221.432V95ZM280.232 95V96H281.232V95H280.232ZM280.232 11.672V10.672H279.232V11.672H280.232ZM325.928 11.672H326.928V10.672H325.928V11.672ZM325.928 15.032L326.696 15.6722L326.928 15.394V15.032H325.928ZM323.576 19.4L322.614 19.1253L322.596 19.191L322.586 19.2586L323.576 19.4ZM323.24 221V222H324.24V221H323.24ZM279.896 221H278.896V222H279.896V221ZM279.896 128.6H280.896V127.6H279.896V128.6ZM221.432 128.6V127.6H220.432V128.6H221.432ZM221.432 221V222H222.432V221H221.432ZM178.424 221H177.424V222H178.424V221ZM178.424 12.672H221.096V10.672H178.424V12.672ZM221.096 12.672H224.12V10.672H221.096V12.672ZM223.12 11.672V15.032H225.12V11.672H223.12ZM223.352 14.3918C222.149 15.8349 221.295 17.4138 220.806 19.1253L222.73 19.6747C223.137 18.2502 223.851 16.917 224.888 15.6722L223.352 14.3918ZM220.778 19.2586C220.543 20.9042 220.432 23.6559 220.432 27.464H222.432C222.432 23.6561 222.545 21.0318 222.758 19.5414L220.778 19.2586ZM220.432 27.464V95H222.432V27.464H220.432ZM221.432 96H280.232V94H221.432V96ZM281.232 95V11.672H279.232V95H281.232ZM280.232 12.672H322.904V10.672H280.232V12.672ZM322.904 12.672H325.928V10.672H322.904V12.672ZM324.928 11.672V15.032H326.928V11.672H324.928ZM325.16 14.3918C323.957 15.8349 323.103 17.4138 322.614 19.1253L324.538 19.6747C324.945 18.2502 325.659 16.917 326.696 15.6722L325.16 14.3918ZM322.586 19.2586C322.351 20.9042 322.24 23.6559 322.24 27.464H324.24C324.24 23.6561 324.353 21.0318 324.566 19.5414L322.586 19.2586ZM322.24 27.464V221H324.24V27.464H322.24ZM323.24 220H279.896V222H323.24V220ZM280.896 221V128.6H278.896V221H280.896ZM279.896 127.6H221.432V129.6H279.896V127.6ZM220.432 128.6V221H222.432V128.6H220.432ZM221.432 220H178.424V222H221.432V220ZM179.424 221V11.672H177.424V221H179.424ZM459.32 176.312V177.312H460.556L460.298 176.103L459.32 176.312ZM375.656 176.312L374.672 176.135L374.46 177.312H375.656V176.312ZM381.032 146.408V145.408H380.196L380.048 146.231L381.032 146.408ZM452.936 146.408L453.914 146.199L453.745 145.408H452.936V146.408ZM419.336 86.6L420.3 86.3326L419.349 82.9065L418.374 86.3259L419.336 86.6ZM381.032 221V222H381.787L381.994 221.274L381.032 221ZM338.696 221L337.746 220.688L337.316 222H338.696V221ZM407.576 11V10H406.852L406.626 10.6883L407.576 11ZM430.76 11L431.71 10.6883L431.484 10H430.76V11ZM499.64 221V222H501.02L500.59 220.688L499.64 221ZM456.632 221L455.668 221.267L455.872 222H456.632V221ZM459.32 175.312H375.656V177.312H459.32V175.312ZM376.64 176.489L382.016 146.585L380.048 146.231L374.672 176.135L376.64 176.489ZM381.032 147.408H452.936V145.408H381.032V147.408ZM451.958 146.617L458.342 176.521L460.298 176.103L453.914 146.199L451.958 146.617ZM418.374 86.3259L380.07 220.726L381.994 221.274L420.298 86.8741L418.374 86.3259ZM381.032 220H338.696V222H381.032V220ZM339.646 221.312L408.526 11.3117L406.626 10.6883L337.746 220.688L339.646 221.312ZM407.576 12H430.76V10H407.576V12ZM429.81 11.3117L498.69 221.312L500.59 220.688L431.71 10.6883L429.81 11.3117ZM499.64 220H456.632V222H499.64V220ZM457.596 220.733L420.3 86.3326L418.372 86.8674L455.668 221.267L457.596 220.733ZM512.744 221H511.744V222H512.744V221ZM512.744 11.672V10.672H511.744V11.672H512.744ZM550.712 11.672L551.642 11.3052L551.393 10.672H550.712V11.672ZM587.672 105.416L586.742 105.783L587.674 108.147L588.603 105.782L587.672 105.416ZM624.632 11.336V10.336H623.95L623.701 10.9703L624.632 11.336ZM662.936 11.336H663.936V10.336H662.936V11.336ZM662.936 221V222H663.936V221H662.936ZM626.648 221H625.648V222H626.648V221ZM626.648 78.536H627.648L625.715 78.1762L626.648 78.536ZM597.752 153.464V154.464H598.438L598.685 153.824L597.752 153.464ZM576.248 153.464L575.31 153.81L575.551 154.464H576.248V153.464ZM548.696 78.872L549.634 78.5255L547.696 78.872H548.696ZM548.696 221V222H549.696V221H548.696ZM513.744 221V11.672H511.744V221H513.744ZM512.744 12.672H550.712V10.672H512.744V12.672ZM549.782 12.0388L586.742 105.783L588.602 105.049L551.642 11.3052L549.782 12.0388ZM588.603 105.782L625.563 11.7016L623.701 10.9703L586.741 105.05L588.603 105.782ZM624.632 12.336H662.936V10.336H624.632V12.336ZM661.936 11.336V221H663.936V11.336H661.936ZM662.936 220H626.648V222H662.936V220ZM627.648 221V78.536H625.648V221H627.648ZM625.715 78.1762L596.819 153.104L598.685 153.824L627.581 78.8958L625.715 78.1762ZM597.752 152.464H576.248V154.464H597.752V152.464ZM577.186 153.118L549.634 78.5255L547.758 79.2185L575.31 153.81L577.186 153.118ZM547.696 78.872V221H549.696V78.872H547.696ZM548.696 220H512.744V222H548.696V220Z" fill="#22FF38"/>
<path d="M400 147L437 147.5H443L450 176H393L389 188.5L384 187.5H368V176L367 161.5H394L400 147Z" fill="#DDEFDD"/>
<mask id="mask0_408_118" style="mask-type:alpha" maskUnits="userSpaceOnUse" x="2" y="1" width="655" height="219">
<path d="M86.072 219.032C74.648 219.032 63.896 216.904 53.816 212.648C43.736 208.392 34.776 201.896 26.936 193.16C19.096 184.424 12.936 173.336 8.456 159.896C4.2 146.232 2.072 130.104 2.072 111.512C2.072 95.16 3.752 80.824 7.112 68.504C10.696 56.184 15.4 45.88 21.224 37.592C27.048 29.08 33.656 22.248 41.048 17.096C48.44 11.72 56.168 7.91199 64.232 5.67199C72.296 3.208 80.248 1.976 88.088 1.976C104.216 1.976 117.88 5.55999 129.08 12.728C140.504 19.672 149.24 29.752 155.288 42.968L130.424 63.464L128.072 65.48L125.72 62.792C125.944 61 125.832 59.32 125.384 57.752C124.936 55.96 123.704 53.608 121.688 50.696C117.208 45.096 112.392 41.4 107.24 39.608C102.088 37.816 96.824 36.92 91.448 36.92C85.624 36.92 79.912 38.488 74.312 41.624C68.936 44.536 64.008 49.016 59.528 55.064C55.048 61.112 51.464 68.728 48.776 77.912C46.088 86.872 44.744 97.512 44.744 109.832C44.744 121.704 45.752 132.232 47.768 141.416C50.008 150.376 53.032 158.104 56.84 164.6C60.648 170.872 65.128 175.688 70.28 179.048C75.656 182.184 81.48 183.752 87.752 183.752C93.128 183.752 97.944 183.08 102.2 181.736C106.456 180.392 110.376 178.152 113.96 175.016C117.544 171.656 120.904 167.176 124.04 161.576L153.608 183.416C145.32 196.632 135.688 205.928 124.712 211.304C113.736 216.456 100.856 219.032 86.072 219.032ZM172.424 5.67199H215.096H218.12V9.03199C217 10.376 216.216 11.832 215.768 13.4C215.544 14.968 215.432 17.656 215.432 21.464V89H274.232V5.67199H316.904H319.928V9.03199C318.808 10.376 318.024 11.832 317.576 13.4C317.352 14.968 317.24 17.656 317.24 21.464V215H273.896V122.6H215.432V215H172.424V5.67199ZM453.32 170.312H369.656L375.032 140.408H446.936L453.32 170.312ZM413.336 80.6L375.032 215H332.696L401.576 5H424.76L493.64 215H450.632L413.336 80.6ZM506.744 215V5.67199H544.712L581.672 99.416L618.632 5.336H656.936V215H620.648V72.536L591.752 147.464H570.248L542.696 72.872V215H506.744Z" fill="white"/>
<path d="M26.936 193.16L27.6802 192.492L27.6802 192.492L26.936 193.16ZM8.456 159.896L7.50124 160.193L7.50419 160.203L7.50732 160.212L8.456 159.896ZM7.112 68.504L6.15181 68.2247L6.14945 68.2328L6.14724 68.2409L7.112 68.504ZM21.224 37.592L22.0423 38.167L22.0493 38.1567L21.224 37.592ZM41.048 17.096L41.6198 17.9164L41.628 17.9106L41.6362 17.9047L41.048 17.096ZM64.232 5.67199L64.4996 6.63551L64.512 6.63208L64.5242 6.62834L64.232 5.67199ZM129.08 12.728L128.541 13.5703L128.551 13.5765L128.561 13.5825L129.08 12.728ZM155.288 42.968L155.924 43.7396L156.517 43.2507L156.197 42.5519L155.288 42.968ZM130.424 63.464L129.788 62.6924L129.781 62.6985L129.773 62.7047L130.424 63.464ZM128.072 65.48L127.319 66.1385L127.971 66.8834L128.723 66.2392L128.072 65.48ZM125.72 62.792L124.728 62.668L124.672 63.113L124.967 63.4505L125.72 62.792ZM125.384 57.752L124.414 57.9945L124.418 58.0107L124.422 58.0267L125.384 57.752ZM121.688 50.696L122.51 50.1268L122.49 50.0983L122.469 50.0713L121.688 50.696ZM74.312 41.624L74.7883 42.5034L74.8006 42.4965L74.312 41.624ZM59.528 55.064L60.3316 55.6592L60.3316 55.6592L59.528 55.064ZM48.776 77.912L49.7339 78.1993L49.7357 78.1929L48.776 77.912ZM47.768 141.416L46.7913 141.63L46.7944 141.645L46.7979 141.659L47.768 141.416ZM56.84 164.6L55.9773 165.106L55.9812 165.112L55.9852 165.119L56.84 164.6ZM70.28 179.048L69.7337 179.886L69.7546 179.899L69.7761 179.912L70.28 179.048ZM102.2 181.736L101.899 180.782L101.899 180.782L102.2 181.736ZM113.96 175.016L114.619 175.769L114.631 175.757L114.644 175.746L113.96 175.016ZM124.04 161.576L124.634 160.772L123.722 160.098L123.167 161.087L124.04 161.576ZM153.608 183.416L154.455 183.947L154.948 183.162L154.202 182.612L153.608 183.416ZM124.712 211.304L125.137 212.209L125.144 212.206L125.152 212.202L124.712 211.304ZM86.072 218.032C74.7756 218.032 64.1565 215.928 54.205 211.727L53.427 213.569C63.6355 217.88 74.5204 220.032 86.072 220.032V218.032ZM54.205 211.727C44.2703 207.532 35.4292 201.127 27.6802 192.492L26.1918 193.828C34.1228 202.665 43.2017 209.252 53.427 213.569L54.205 211.727ZM27.6802 192.492C19.9486 183.877 13.8501 172.916 9.40468 159.58L7.50732 160.212C12.0219 173.756 18.2434 184.971 26.1918 193.828L27.6802 192.492ZM9.41076 159.599C5.19217 146.055 3.072 130.032 3.072 111.512H1.072C1.072 130.176 3.20783 146.409 7.50124 160.193L9.41076 159.599ZM3.072 111.512C3.072 95.2254 4.74562 80.9813 8.07676 68.7671L6.14724 68.2409C2.75838 80.6667 1.072 95.0946 1.072 111.512H3.072ZM8.0722 68.7833C11.6333 56.5421 16.2958 46.3445 22.0422 38.1669L20.4058 37.0171C14.5042 45.4155 9.75873 55.8258 6.15181 68.2247L8.0722 68.7833ZM22.0493 38.1567C27.8147 29.7303 34.3403 22.9899 41.6198 17.9164L40.4762 16.2756C32.9717 21.506 26.2813 28.4297 20.3987 37.0273L22.0493 38.1567ZM41.6362 17.9047C48.9404 12.5926 56.5611 8.84067 64.4996 6.63551L63.9644 4.70847C55.775 6.98331 47.9396 10.8474 40.4598 16.2872L41.6362 17.9047ZM64.5242 6.62834C72.5006 4.19111 80.3542 2.976 88.088 2.976V0.975999C80.1418 0.975999 72.0914 2.22489 63.9398 4.71564L64.5242 6.62834ZM88.088 2.976C104.066 2.976 117.533 6.52531 128.541 13.5703L129.619 11.8857C118.227 4.59467 104.366 0.975999 88.088 0.975999V2.976ZM128.561 13.5825C139.799 20.4136 148.406 30.3334 154.379 43.3841L156.197 42.5519C150.074 29.1706 141.209 18.9304 129.599 11.8735L128.561 13.5825ZM154.652 42.1964L129.788 62.6924L131.06 64.2356L155.924 43.7396L154.652 42.1964ZM129.773 62.7047L127.421 64.7207L128.723 66.2392L131.075 64.2232L129.773 62.7047ZM128.825 64.8215L126.473 62.1335L124.967 63.4505L127.319 66.1385L128.825 64.8215ZM126.712 62.916C126.951 61.0048 126.834 59.188 126.346 57.4773L124.422 58.0267C124.83 59.452 124.937 60.9952 124.728 62.668L126.712 62.916ZM126.354 57.5095C125.861 55.5371 124.544 53.0641 122.51 50.1268L120.866 51.2652C122.864 54.1519 124.011 56.3829 124.414 57.9945L126.354 57.5095ZM122.469 50.0713C117.907 44.3696 112.946 40.534 107.569 38.6635L106.911 40.5525C111.838 42.266 116.509 45.8224 120.907 51.3207L122.469 50.0713ZM107.569 38.6635C102.312 36.8353 96.9375 35.92 91.448 35.92V37.92C96.7105 37.92 101.864 38.7967 106.911 40.5525L107.569 38.6635ZM91.448 35.92C85.4359 35.92 79.5571 37.5406 73.8234 40.7515L74.8006 42.4965C80.2669 39.4354 85.8121 37.92 91.448 37.92V35.92ZM73.8357 40.7447C68.305 43.7405 63.2718 48.3298 58.7244 54.4688L60.3316 55.6592C64.7442 49.7022 69.567 45.3315 74.7883 42.5033L73.8357 40.7447ZM58.7244 54.4688C54.1581 60.6333 50.5288 68.3633 47.8163 77.6311L49.7357 78.1929C52.3992 69.0927 55.9379 61.5907 60.3316 55.6592L58.7244 54.4688ZM47.8182 77.6246C45.095 86.702 43.744 97.4436 43.744 109.832H45.744C45.744 97.5804 47.081 87.042 49.7338 78.1993L47.8182 77.6246ZM43.744 109.832C43.744 121.758 44.7564 132.36 46.7913 141.63L48.7447 141.202C46.7476 132.104 45.744 121.65 45.744 109.832H43.744ZM46.7979 141.659C49.0559 150.691 52.1117 158.511 55.9773 165.106L57.7027 164.094C53.9523 157.697 50.9601 150.061 48.7381 141.173L46.7979 141.659ZM55.9852 165.119C59.8561 171.495 64.4344 176.43 69.7337 179.886L70.8263 178.21C65.8216 174.946 61.4399 170.249 57.6948 164.081L55.9852 165.119ZM69.7761 179.912C75.3063 183.138 81.3044 184.752 87.752 184.752V182.752C81.6556 182.752 76.0057 181.23 70.7839 178.184L69.7761 179.912ZM87.752 184.752C93.21 184.752 98.1302 184.07 102.501 182.69L101.899 180.782C97.7578 182.09 93.046 182.752 87.752 182.752V184.752ZM102.501 182.69C106.898 181.301 110.938 178.989 114.619 175.769L113.302 174.263C109.814 177.315 106.014 179.483 101.899 180.782L102.501 182.69ZM114.644 175.746C118.322 172.298 121.741 167.728 124.913 162.065L123.167 161.087C120.067 166.624 116.766 171.014 113.276 174.286L114.644 175.746ZM123.446 162.38L153.014 184.22L154.202 182.612L124.634 160.772L123.446 162.38ZM152.761 182.885C144.545 195.986 135.04 205.132 124.272 210.406L125.152 212.202C136.336 206.724 146.095 197.278 154.455 183.947L152.761 182.885ZM124.287 210.399C113.47 215.476 100.741 218.032 86.072 218.032V220.032C100.971 220.032 114.002 217.436 125.137 212.209L124.287 210.399ZM172.424 5.67199V4.67199H171.424V5.67199H172.424ZM218.12 5.67199H219.12V4.67199H218.12V5.67199ZM218.12 9.03199L218.888 9.67217L219.12 9.39404V9.03199H218.12ZM215.768 13.4L214.806 13.1253L214.788 13.1909L214.778 13.2586L215.768 13.4ZM215.432 89H214.432V90H215.432V89ZM274.232 89V90H275.232V89H274.232ZM274.232 5.67199V4.67199H273.232V5.67199H274.232ZM319.928 5.67199H320.928V4.67199H319.928V5.67199ZM319.928 9.03199L320.696 9.67217L320.928 9.39404V9.03199H319.928ZM317.576 13.4L316.614 13.1253L316.596 13.191L316.586 13.2586L317.576 13.4ZM317.24 215V216H318.24V215H317.24ZM273.896 215H272.896V216H273.896V215ZM273.896 122.6H274.896V121.6H273.896V122.6ZM215.432 122.6V121.6H214.432V122.6H215.432ZM215.432 215V216H216.432V215H215.432ZM172.424 215H171.424V216H172.424V215ZM172.424 6.67199H215.096V4.67199H172.424V6.67199ZM215.096 6.67199H218.12V4.67199H215.096V6.67199ZM217.12 5.67199V9.03199H219.12V5.67199H217.12ZM217.352 8.3918C216.149 9.83492 215.295 11.4138 214.806 13.1253L216.73 13.6747C217.137 12.2502 217.851 10.917 218.888 9.67217L217.352 8.3918ZM214.778 13.2586C214.543 14.9042 214.432 17.6559 214.432 21.464H216.432C216.432 17.6561 216.545 15.0318 216.758 13.5414L214.778 13.2586ZM214.432 21.464V89H216.432V21.464H214.432ZM215.432 90H274.232V88H215.432V90ZM275.232 89V5.67199H273.232V89H275.232ZM274.232 6.67199H316.904V4.67199H274.232V6.67199ZM316.904 6.67199H319.928V4.67199H316.904V6.67199ZM318.928 5.67199V9.03199H320.928V5.67199H318.928ZM319.16 8.3918C317.957 9.83492 317.103 11.4138 316.614 13.1253L318.538 13.6747C318.945 12.2502 319.659 10.917 320.696 9.67217L319.16 8.3918ZM316.586 13.2586C316.351 14.9042 316.24 17.6559 316.24 21.464H318.24C318.24 17.6561 318.353 15.0318 318.566 13.5414L316.586 13.2586ZM316.24 21.464V215H318.24V21.464H316.24ZM317.24 214H273.896V216H317.24V214ZM274.896 215V122.6H272.896V215H274.896ZM273.896 121.6H215.432V123.6H273.896V121.6ZM214.432 122.6V215H216.432V122.6H214.432ZM215.432 214H172.424V216H215.432V214ZM173.424 215V5.67199H171.424V215H173.424ZM453.32 170.312V171.312H454.556L454.298 170.103L453.32 170.312ZM369.656 170.312L368.672 170.135L368.46 171.312H369.656V170.312ZM375.032 140.408V139.408H374.196L374.048 140.231L375.032 140.408ZM446.936 140.408L447.914 140.199L447.745 139.408H446.936V140.408ZM413.336 80.6L414.3 80.3326L413.349 76.9065L412.374 80.3259L413.336 80.6ZM375.032 215V216H375.787L375.994 215.274L375.032 215ZM332.696 215L331.746 214.688L331.316 216H332.696V215ZM401.576 5V4H400.852L400.626 4.68834L401.576 5ZM424.76 5L425.71 4.68834L425.484 4H424.76V5ZM493.64 215V216H495.02L494.59 214.688L493.64 215ZM450.632 215L449.668 215.267L449.872 216H450.632V215ZM453.32 169.312H369.656V171.312H453.32V169.312ZM370.64 170.489L376.016 140.585L374.048 140.231L368.672 170.135L370.64 170.489ZM375.032 141.408H446.936V139.408H375.032V141.408ZM445.958 140.617L452.342 170.521L454.298 170.103L447.914 140.199L445.958 140.617ZM412.374 80.3259L374.07 214.726L375.994 215.274L414.298 80.8741L412.374 80.3259ZM375.032 214H332.696V216H375.032V214ZM333.646 215.312L402.526 5.31166L400.626 4.68834L331.746 214.688L333.646 215.312ZM401.576 6H424.76V4H401.576V6ZM423.81 5.31166L492.69 215.312L494.59 214.688L425.71 4.68834L423.81 5.31166ZM493.64 214H450.632V216H493.64V214ZM451.596 214.733L414.3 80.3326L412.372 80.8674L449.668 215.267L451.596 214.733ZM506.744 215H505.744V216H506.744V215ZM506.744 5.67199V4.67199H505.744V5.67199H506.744ZM544.712 5.67199L545.642 5.3052L545.393 4.67199H544.712V5.67199ZM581.672 99.416L580.742 99.7828L581.674 102.147L582.603 99.7816L581.672 99.416ZM618.632 5.336V4.336H617.95L617.701 4.97034L618.632 5.336ZM656.936 5.336H657.936V4.336H656.936V5.336ZM656.936 215V216H657.936V215H656.936ZM620.648 215H619.648V216H620.648V215ZM620.648 72.536H621.648L619.715 72.1762L620.648 72.536ZM591.752 147.464V148.464H592.438L592.685 147.824L591.752 147.464ZM570.248 147.464L569.31 147.81L569.551 148.464H570.248V147.464ZM542.696 72.872L543.634 72.5255L541.696 72.872H542.696ZM542.696 215V216H543.696V215H542.696ZM507.744 215V5.67199H505.744V215H507.744ZM506.744 6.67199H544.712V4.67199H506.744V6.67199ZM543.782 6.03878L580.742 99.7828L582.602 99.0492L545.642 5.3052L543.782 6.03878ZM582.603 99.7816L619.563 5.70165L617.701 4.97034L580.741 99.0503L582.603 99.7816ZM618.632 6.336H656.936V4.336H618.632V6.336ZM655.936 5.336V215H657.936V5.336H655.936ZM656.936 214H620.648V216H656.936V214ZM621.648 215V72.536H619.648V215H621.648ZM619.715 72.1762L590.819 147.104L592.685 147.824L621.581 72.8958L619.715 72.1762ZM591.752 146.464H570.248V148.464H591.752V146.464ZM571.186 147.118L543.634 72.5255L541.758 73.2185L569.31 147.81L571.186 147.118ZM541.696 72.872V215H543.696V72.872H541.696ZM542.696 214H506.744V216H542.696V214Z" fill="black"/>
</mask>
<g mask="url(#mask0_408_118)">
<path d="M86.072 219.032C74.648 219.032 63.896 216.904 53.816 212.648C43.736 208.392 34.776 201.896 26.936 193.16C19.096 184.424 12.936 173.336 8.456 159.896C4.2 146.232 2.072 130.104 2.072 111.512C2.072 95.16 3.752 80.824 7.112 68.504C10.696 56.184 15.4 45.88 21.224 37.592C27.048 29.08 33.656 22.248 41.048 17.096C48.44 11.72 56.168 7.91199 64.232 5.67199C72.296 3.208 80.248 1.976 88.088 1.976C104.216 1.976 117.88 5.55999 129.08 12.728C140.504 19.672 149.24 29.752 155.288 42.968L130.424 63.464L128.072 65.48L125.72 62.792C125.944 61 125.832 59.32 125.384 57.752C124.936 55.96 123.704 53.608 121.688 50.696C117.208 45.096 112.392 41.4 107.24 39.608C102.088 37.816 96.824 36.92 91.448 36.92C85.624 36.92 79.912 38.488 74.312 41.624C68.936 44.536 64.008 49.016 59.528 55.064C55.048 61.112 51.464 68.728 48.776 77.912C46.088 86.872 44.744 97.512 44.744 109.832C44.744 121.704 45.752 132.232 47.768 141.416C50.008 150.376 53.032 158.104 56.84 164.6C60.648 170.872 65.128 175.688 70.28 179.048C75.656 182.184 81.48 183.752 87.752 183.752C93.128 183.752 97.944 183.08 102.2 181.736C106.456 180.392 110.376 178.152 113.96 175.016C117.544 171.656 120.904 167.176 124.04 161.576L153.608 183.416C145.32 196.632 135.688 205.928 124.712 211.304C113.736 216.456 100.856 219.032 86.072 219.032ZM172.424 5.67199H215.096H218.12V9.03199C217 10.376 216.216 11.832 215.768 13.4C215.544 14.968 215.432 17.656 215.432 21.464V89H274.232V5.67199H316.904H319.928V9.03199C318.808 10.376 318.024 11.832 317.576 13.4C317.352 14.968 317.24 17.656 317.24 21.464V215H273.896V122.6H215.432V215H172.424V5.67199ZM453.32 170.312H369.656L375.032 140.408H446.936L453.32 170.312ZM413.336 80.6L375.032 215H332.696L401.576 5H424.76L493.64 215H450.632L413.336 80.6ZM506.744 215V5.67199H544.712L581.672 99.416L618.632 5.336H656.936V215H620.648V72.536L591.752 147.464H570.248L542.696 72.872V215H506.744Z" fill="white"/>
<path d="M26.936 193.16L27.6802 192.492L27.6802 192.492L26.936 193.16ZM8.456 159.896L7.50124 160.193L7.50419 160.203L7.50732 160.212L8.456 159.896ZM7.112 68.504L6.15181 68.2247L6.14945 68.2328L6.14724 68.2409L7.112 68.504ZM21.224 37.592L22.0423 38.167L22.0493 38.1567L21.224 37.592ZM41.048 17.096L41.6198 17.9164L41.628 17.9106L41.6362 17.9047L41.048 17.096ZM64.232 5.67199L64.4996 6.63551L64.512 6.63208L64.5242 6.62834L64.232 5.67199ZM129.08 12.728L128.541 13.5703L128.551 13.5765L128.561 13.5825L129.08 12.728ZM155.288 42.968L155.924 43.7396L156.517 43.2507L156.197 42.5519L155.288 42.968ZM130.424 63.464L129.788 62.6924L129.781 62.6985L129.773 62.7047L130.424 63.464ZM128.072 65.48L127.319 66.1385L127.971 66.8834L128.723 66.2392L128.072 65.48ZM125.72 62.792L124.728 62.668L124.672 63.113L124.967 63.4505L125.72 62.792ZM125.384 57.752L124.414 57.9945L124.418 58.0107L124.422 58.0267L125.384 57.752ZM121.688 50.696L122.51 50.1268L122.49 50.0983L122.469 50.0713L121.688 50.696ZM74.312 41.624L74.7883 42.5034L74.8006 42.4965L74.312 41.624ZM59.528 55.064L60.3316 55.6592L60.3316 55.6592L59.528 55.064ZM48.776 77.912L49.7339 78.1993L49.7357 78.1929L48.776 77.912ZM47.768 141.416L46.7913 141.63L46.7944 141.645L46.7979 141.659L47.768 141.416ZM56.84 164.6L55.9773 165.106L55.9812 165.112L55.9852 165.119L56.84 164.6ZM70.28 179.048L69.7337 179.886L69.7546 179.899L69.7761 179.912L70.28 179.048ZM102.2 181.736L101.899 180.782L101.899 180.782L102.2 181.736ZM113.96 175.016L114.619 175.769L114.631 175.757L114.644 175.746L113.96 175.016ZM124.04 161.576L124.634 160.772L123.722 160.098L123.167 161.087L124.04 161.576ZM153.608 183.416L154.455 183.947L154.948 183.162L154.202 182.612L153.608 183.416ZM124.712 211.304L125.137 212.209L125.144 212.206L125.152 212.202L124.712 211.304ZM86.072 218.032C74.7756 218.032 64.1565 215.928 54.205 211.727L53.427 213.569C63.6355 217.88 74.5204 220.032 86.072 220.032V218.032ZM54.205 211.727C44.2703 207.532 35.4292 201.127 27.6802 192.492L26.1918 193.828C34.1228 202.665 43.2017 209.252 53.427 213.569L54.205 211.727ZM27.6802 192.492C19.9486 183.877 13.8501 172.916 9.40468 159.58L7.50732 160.212C12.0219 173.756 18.2434 184.971 26.1918 193.828L27.6802 192.492ZM9.41076 159.599C5.19217 146.055 3.072 130.032 3.072 111.512H1.072C1.072 130.176 3.20783 146.409 7.50124 160.193L9.41076 159.599ZM3.072 111.512C3.072 95.2254 4.74562 80.9813 8.07676 68.7671L6.14724 68.2409C2.75838 80.6667 1.072 95.0946 1.072 111.512H3.072ZM8.0722 68.7833C11.6333 56.5421 16.2958 46.3445 22.0422 38.1669L20.4058 37.0171C14.5042 45.4155 9.75873 55.8258 6.15181 68.2247L8.0722 68.7833ZM22.0493 38.1567C27.8147 29.7303 34.3403 22.9899 41.6198 17.9164L40.4762 16.2756C32.9717 21.506 26.2813 28.4297 20.3987 37.0273L22.0493 38.1567ZM41.6362 17.9047C48.9404 12.5926 56.5611 8.84067 64.4996 6.63551L63.9644 4.70847C55.775 6.98331 47.9396 10.8474 40.4598 16.2872L41.6362 17.9047ZM64.5242 6.62834C72.5006 4.19111 80.3542 2.976 88.088 2.976V0.975999C80.1418 0.975999 72.0914 2.22489 63.9398 4.71564L64.5242 6.62834ZM88.088 2.976C104.066 2.976 117.533 6.52531 128.541 13.5703L129.619 11.8857C118.227 4.59467 104.366 0.975999 88.088 0.975999V2.976ZM128.561 13.5825C139.799 20.4136 148.406 30.3334 154.379 43.3841L156.197 42.5519C150.074 29.1706 141.209 18.9304 129.599 11.8735L128.561 13.5825ZM154.652 42.1964L129.788 62.6924L131.06 64.2356L155.924 43.7396L154.652 42.1964ZM129.773 62.7047L127.421 64.7207L128.723 66.2392L131.075 64.2232L129.773 62.7047ZM128.825 64.8215L126.473 62.1335L124.967 63.4505L127.319 66.1385L128.825 64.8215ZM126.712 62.916C126.951 61.0048 126.834 59.188 126.346 57.4773L124.422 58.0267C124.83 59.452 124.937 60.9952 124.728 62.668L126.712 62.916ZM126.354 57.5095C125.861 55.5371 124.544 53.0641 122.51 50.1268L120.866 51.2652C122.864 54.1519 124.011 56.3829 124.414 57.9945L126.354 57.5095ZM122.469 50.0713C117.907 44.3696 112.946 40.534 107.569 38.6635L106.911 40.5525C111.838 42.266 116.509 45.8224 120.907 51.3207L122.469 50.0713ZM107.569 38.6635C102.312 36.8353 96.9375 35.92 91.448 35.92V37.92C96.7105 37.92 101.864 38.7967 106.911 40.5525L107.569 38.6635ZM91.448 35.92C85.4359 35.92 79.5571 37.5406 73.8234 40.7515L74.8006 42.4965C80.2669 39.4354 85.8121 37.92 91.448 37.92V35.92ZM73.8357 40.7447C68.305 43.7405 63.2718 48.3298 58.7244 54.4688L60.3316 55.6592C64.7442 49.7022 69.567 45.3315 74.7883 42.5033L73.8357 40.7447ZM58.7244 54.4688C54.1581 60.6333 50.5288 68.3633 47.8163 77.6311L49.7357 78.1929C52.3992 69.0927 55.9379 61.5907 60.3316 55.6592L58.7244 54.4688ZM47.8182 77.6246C45.095 86.702 43.744 97.4436 43.744 109.832H45.744C45.744 97.5804 47.081 87.042 49.7338 78.1993L47.8182 77.6246ZM43.744 109.832C43.744 121.758 44.7564 132.36 46.7913 141.63L48.7447 141.202C46.7476 132.104 45.744 121.65 45.744 109.832H43.744ZM46.7979 141.659C49.0559 150.691 52.1117 158.511 55.9773 165.106L57.7027 164.094C53.9523 157.697 50.9601 150.061 48.7381 141.173L46.7979 141.659ZM55.9852 165.119C59.8561 171.495 64.4344 176.43 69.7337 179.886L70.8263 178.21C65.8216 174.946 61.4399 170.249 57.6948 164.081L55.9852 165.119ZM69.7761 179.912C75.3063 183.138 81.3044 184.752 87.752 184.752V182.752C81.6556 182.752 76.0057 181.23 70.7839 178.184L69.7761 179.912ZM87.752 184.752C93.21 184.752 98.1302 184.07 102.501 182.69L101.899 180.782C97.7578 182.09 93.046 182.752 87.752 182.752V184.752ZM102.501 182.69C106.898 181.301 110.938 178.989 114.619 175.769L113.302 174.263C109.814 177.315 106.014 179.483 101.899 180.782L102.501 182.69ZM114.644 175.746C118.322 172.298 121.741 167.728 124.913 162.065L123.167 161.087C120.067 166.624 116.766 171.014 113.276 174.286L114.644 175.746ZM123.446 162.38L153.014 184.22L154.202 182.612L124.634 160.772L123.446 162.38ZM152.761 182.885C144.545 195.986 135.04 205.132 124.272 210.406L125.152 212.202C136.336 206.724 146.095 197.278 154.455 183.947L152.761 182.885ZM124.287 210.399C113.47 215.476 100.741 218.032 86.072 218.032V220.032C100.971 220.032 114.002 217.436 125.137 212.209L124.287 210.399ZM172.424 5.67199V4.67199H171.424V5.67199H172.424ZM218.12 5.67199H219.12V4.67199H218.12V5.67199ZM218.12 9.03199L218.888 9.67217L219.12 9.39404V9.03199H218.12ZM215.768 13.4L214.806 13.1253L214.788 13.1909L214.778 13.2586L215.768 13.4ZM215.432 89H214.432V90H215.432V89ZM274.232 89V90H275.232V89H274.232ZM274.232 5.67199V4.67199H273.232V5.67199H274.232ZM319.928 5.67199H320.928V4.67199H319.928V5.67199ZM319.928 9.03199L320.696 9.67217L320.928 9.39404V9.03199H319.928ZM317.576 13.4L316.614 13.1253L316.596 13.191L316.586 13.2586L317.576 13.4ZM317.24 215V216H318.24V215H317.24ZM273.896 215H272.896V216H273.896V215ZM273.896 122.6H274.896V121.6H273.896V122.6ZM215.432 122.6V121.6H214.432V122.6H215.432ZM215.432 215V216H216.432V215H215.432ZM172.424 215H171.424V216H172.424V215ZM172.424 6.67199H215.096V4.67199H172.424V6.67199ZM215.096 6.67199H218.12V4.67199H215.096V6.67199ZM217.12 5.67199V9.03199H219.12V5.67199H217.12ZM217.352 8.3918C216.149 9.83492 215.295 11.4138 214.806 13.1253L216.73 13.6747C217.137 12.2502 217.851 10.917 218.888 9.67217L217.352 8.3918ZM214.778 13.2586C214.543 14.9042 214.432 17.6559 214.432 21.464H216.432C216.432 17.6561 216.545 15.0318 216.758 13.5414L214.778 13.2586ZM214.432 21.464V89H216.432V21.464H214.432ZM215.432 90H274.232V88H215.432V90ZM275.232 89V5.67199H273.232V89H275.232ZM274.232 6.67199H316.904V4.67199H274.232V6.67199ZM316.904 6.67199H319.928V4.67199H316.904V6.67199ZM318.928 5.67199V9.03199H320.928V5.67199H318.928ZM319.16 8.3918C317.957 9.83492 317.103 11.4138 316.614 13.1253L318.538 13.6747C318.945 12.2502 319.659 10.917 320.696 9.67217L319.16 8.3918ZM316.586 13.2586C316.351 14.9042 316.24 17.6559 316.24 21.464H318.24C318.24 17.6561 318.353 15.0318 318.566 13.5414L316.586 13.2586ZM316.24 21.464V215H318.24V21.464H316.24ZM317.24 214H273.896V216H317.24V214ZM274.896 215V122.6H272.896V215H274.896ZM273.896 121.6H215.432V123.6H273.896V121.6ZM214.432 122.6V215H216.432V122.6H214.432ZM215.432 214H172.424V216H215.432V214ZM173.424 215V5.67199H171.424V215H173.424ZM453.32 170.312V171.312H454.556L454.298 170.103L453.32 170.312ZM369.656 170.312L368.672 170.135L368.46 171.312H369.656V170.312ZM375.032 140.408V139.408H374.196L374.048 140.231L375.032 140.408ZM446.936 140.408L447.914 140.199L447.745 139.408H446.936V140.408ZM413.336 80.6L414.3 80.3326L413.349 76.9065L412.374 80.3259L413.336 80.6ZM375.032 215V216H375.787L375.994 215.274L375.032 215ZM332.696 215L331.746 214.688L331.316 216H332.696V215ZM401.576 5V4H400.852L400.626 4.68834L401.576 5ZM424.76 5L425.71 4.68834L425.484 4H424.76V5ZM493.64 215V216H495.02L494.59 214.688L493.64 215ZM450.632 215L449.668 215.267L449.872 216H450.632V215ZM453.32 169.312H369.656V171.312H453.32V169.312ZM370.64 170.489L376.016 140.585L374.048 140.231L368.672 170.135L370.64 170.489ZM375.032 141.408H446.936V139.408H375.032V141.408ZM445.958 140.617L452.342 170.521L454.298 170.103L447.914 140.199L445.958 140.617ZM412.374 80.3259L374.07 214.726L375.994 215.274L414.298 80.8741L412.374 80.3259ZM375.032 214H332.696V216H375.032V214ZM333.646 215.312L402.526 5.31166L400.626 4.68834L331.746 214.688L333.646 215.312ZM401.576 6H424.76V4H401.576V6ZM423.81 5.31166L492.69 215.312L494.59 214.688L425.71 4.68834L423.81 5.31166ZM493.64 214H450.632V216H493.64V214ZM451.596 214.733L414.3 80.3326L412.372 80.8674L449.668 215.267L451.596 214.733ZM506.744 215H505.744V216H506.744V215ZM506.744 5.67199V4.67199H505.744V5.67199H506.744ZM544.712 5.67199L545.642 5.3052L545.393 4.67199H544.712V5.67199ZM581.672 99.416L580.742 99.7828L581.674 102.147L582.603 99.7816L581.672 99.416ZM618.632 5.336V4.336H617.95L617.701 4.97034L618.632 5.336ZM656.936 5.336H657.936V4.336H656.936V5.336ZM656.936 215V216H657.936V215H656.936ZM620.648 215H619.648V216H620.648V215ZM620.648 72.536H621.648L619.715 72.1762L620.648 72.536ZM591.752 147.464V148.464H592.438L592.685 147.824L591.752 147.464ZM570.248 147.464L569.31 147.81L569.551 148.464H570.248V147.464ZM542.696 72.872L543.634 72.5255L541.696 72.872H542.696ZM542.696 215V216H543.696V215H542.696ZM507.744 215V5.67199H505.744V215H507.744ZM506.744 6.67199H544.712V4.67199H506.744V6.67199ZM543.782 6.03878L580.742 99.7828L582.602 99.0492L545.642 5.3052L543.782 6.03878ZM582.603 99.7816L619.563 5.70165L617.701 4.97034L580.741 99.0503L582.603 99.7816ZM618.632 6.336H656.936V4.336H618.632V6.336ZM655.936 5.336V215H657.936V5.336H655.936ZM656.936 214H620.648V216H656.936V214ZM621.648 215V72.536H619.648V215H621.648ZM619.715 72.1762L590.819 147.104L592.685 147.824L621.581 72.8958L619.715 72.1762ZM591.752 146.464H570.248V148.464H591.752V146.464ZM571.186 147.118L543.634 72.5255L541.758 73.2185L569.31 147.81L571.186 147.118ZM541.696 72.872V215H543.696V72.872H541.696ZM542.696 214H506.744V216H542.696V214Z" fill="black"/>
<path d="M399 127L366 116.5L348.5 170.5L383.5 180.5L387 170H439L442.5 180.5L478 170.5L459.5 116.5L428 129L431 140.5H395.5L399 127Z" fill="white"/>
<path d="M-7.5439 -198.25C-7.5439 -198.25 122.265 -320.187 170.194 -263.827C218.528 -206.99 28.4738 -160.285 72.1932 -99.8268C117.942 -36.5615 189.118 -200.134 260.193 -167.827C348.708 -127.592 219.71 5.6773 282.193 80.1732C347.057 157.508 432.824 148.569 533.456 140.75C591.86 136.212 639.5 122 639.5 122L639.5 156.5" stroke="#0C0D0D"/>
</g>
</svg>
