<svg width="785" height="537" viewBox="0 0 785 537" fill="none" xmlns="http://www.w3.org/2000/svg">
<mask id="mask0_434_274" style="mask-type:alpha" maskUnits="userSpaceOnUse" x="182" y="99" width="413" height="282">
<path d="M182.56 99.404H246.292H250.36V104.376C248.853 106.184 247.799 108.143 247.196 110.252C246.895 112.361 246.744 115.977 246.744 121.1V209.692H317.708V99.404H381.44H385.508V104.376C384.001 106.184 382.947 108.143 382.344 110.252C382.043 112.361 381.892 115.977 381.892 121.1V381H317.708V259.412H246.744V381H182.56V99.404ZM423.476 381V329.924H478.168V150.48H426.188V99.404H592.524V150.48H537.832V329.924H594.784V381H423.476Z" fill="white"/>
<path d="M182.56 99.404V98.404H181.56V99.404H182.56ZM250.36 99.404H251.36V98.404H250.36V99.404ZM250.36 104.376L251.128 105.016L251.36 104.738V104.376H250.36ZM247.196 110.252L246.234 109.977L246.216 110.043L246.206 110.111L247.196 110.252ZM246.744 209.692H245.744V210.692H246.744V209.692ZM317.708 209.692V210.692H318.708V209.692H317.708ZM317.708 99.404V98.404H316.708V99.404H317.708ZM385.508 99.404H386.508V98.404H385.508V99.404ZM385.508 104.376L386.276 105.016L386.508 104.738V104.376H385.508ZM382.344 110.252L381.382 109.977L381.364 110.043L381.354 110.111L382.344 110.252ZM381.892 381V382H382.892V381H381.892ZM317.708 381H316.708V382H317.708V381ZM317.708 259.412H318.708V258.412H317.708V259.412ZM246.744 259.412V258.412H245.744V259.412H246.744ZM246.744 381V382H247.744V381H246.744ZM182.56 381H181.56V382H182.56V381ZM182.56 100.404H246.292V98.404H182.56V100.404ZM246.292 100.404H250.36V98.404H246.292V100.404ZM249.36 99.404V104.376H251.36V99.404H249.36ZM249.592 103.736C248.003 105.643 246.878 107.724 246.234 109.977L248.158 110.527C248.719 108.561 249.704 106.725 251.128 105.016L249.592 103.736ZM246.206 110.111C245.894 112.298 245.744 115.977 245.744 121.1H247.744C247.744 115.977 247.896 112.425 248.186 110.393L246.206 110.111ZM245.744 121.1V209.692H247.744V121.1H245.744ZM246.744 210.692H317.708V208.692H246.744V210.692ZM318.708 209.692V99.404H316.708V209.692H318.708ZM317.708 100.404H381.44V98.404H317.708V100.404ZM381.44 100.404H385.508V98.404H381.44V100.404ZM384.508 99.404V104.376H386.508V99.404H384.508ZM384.74 103.736C383.151 105.643 382.026 107.724 381.382 109.977L383.306 110.527C383.867 108.561 384.852 106.725 386.276 105.016L384.74 103.736ZM381.354 110.111C381.042 112.298 380.892 115.977 380.892 121.1H382.892C382.892 115.977 383.044 112.425 383.334 110.393L381.354 110.111ZM380.892 121.1V381H382.892V121.1H380.892ZM381.892 380H317.708V382H381.892V380ZM318.708 381V259.412H316.708V381H318.708ZM317.708 258.412H246.744V260.412H317.708V258.412ZM245.744 259.412V381H247.744V259.412H245.744ZM246.744 380H182.56V382H246.744V380ZM183.56 381V99.404H181.56V381H183.56ZM423.476 381H422.476V382H423.476V381ZM423.476 329.924V328.924H422.476V329.924H423.476ZM478.168 329.924V330.924H479.168V329.924H478.168ZM478.168 150.48H479.168V149.48H478.168V150.48ZM426.188 150.48H425.188V151.48H426.188V150.48ZM426.188 99.404V98.404H425.188V99.404H426.188ZM592.524 99.404H593.524V98.404H592.524V99.404ZM592.524 150.48V151.48H593.524V150.48H592.524ZM537.832 150.48V149.48H536.832V150.48H537.832ZM537.832 329.924H536.832V330.924H537.832V329.924ZM594.784 329.924H595.784V328.924H594.784V329.924ZM594.784 381V382H595.784V381H594.784ZM424.476 381V329.924H422.476V381H424.476ZM423.476 330.924H478.168V328.924H423.476V330.924ZM479.168 329.924V150.48H477.168V329.924H479.168ZM478.168 149.48H426.188V151.48H478.168V149.48ZM427.188 150.48V99.404H425.188V150.48H427.188ZM426.188 100.404H592.524V98.404H426.188V100.404ZM591.524 99.404V150.48H593.524V99.404H591.524ZM592.524 149.48H537.832V151.48H592.524V149.48ZM536.832 150.48V329.924H538.832V150.48H536.832ZM537.832 330.924H594.784V328.924H537.832V330.924ZM593.784 329.924V381H595.784V329.924H593.784ZM594.784 380H423.476V382H594.784V380Z" fill="black"/>
</mask>
<g mask="url(#mask0_434_274)">
<path d="M182.56 99.404H246.292H250.36V104.376C248.853 106.184 247.799 108.143 247.196 110.252C246.895 112.361 246.744 115.977 246.744 121.1V209.692H317.708V99.404H381.44H385.508V104.376C384.001 106.184 382.947 108.143 382.344 110.252C382.043 112.361 381.892 115.977 381.892 121.1V381H317.708V259.412H246.744V381H182.56V99.404ZM423.476 381V329.924H478.168V150.48H426.188V99.404H592.524V150.48H537.832V329.924H594.784V381H423.476Z" fill="white"/>
<path d="M172.456 224.75C172.456 224.75 302.265 102.813 350.194 159.173C398.528 216.01 208.474 262.715 252.193 323.173C297.942 386.438 369.118 222.866 440.193 255.173C528.708 295.408 399.71 428.677 462.193 503.173C527.057 580.508 713.456 563.75 713.456 563.75" stroke="#0C0D0D"/>
</g>
</svg>
